<svg id="Слой_1" data-name="Слой 1" xmlns="http://www.w3.org/2000/svg" width="98.95mm" height="98.78mm" viewBox="0 0 280.49 280">
  <title>Монтажная область 1d</title>
  <g id="Shadow" style="opacity: 0.1">
    <g>
      <path d="M96.37,276c14.45.53,25.38-4.41,35.74-10.34q40.83-23.37,81.44-47.15c16.63-9.69,33.16-19.57,49.74-29.34,10.88-6.41,16-16.53,16.06-28.54s-5.49-22.21-16.19-28.56c-16.41-9.74-32.7-19.79-49.69-28.44-16.57-8.43-34.51-9-51.34-1.1-16.48,7.77-32.08,17.44-48,26.47-18,10.27-35.95,20.73-53.88,31.16-13.34,7.76-26.46,15.92-40,23.35-22.84,12.56-22.57,47,0,59,15.83,8.39,31.07,17.87,46.73,26.6A56.35,56.35,0,0,0,96.37,276Z" style="fill: #fefefe"/>
      <path d="M96.37,276A56.35,56.35,0,0,1,67,269.1c-15.66-8.73-30.9-18.21-46.73-26.6-22.55-12-22.82-46.41,0-59,13.52-7.43,26.64-15.59,40-23.35,17.93-10.43,35.85-20.89,53.88-31.16,15.88-9,31.48-18.7,48-26.47,16.83-7.92,34.77-7.33,51.34,1.1,17,8.65,33.28,18.7,49.69,28.44,10.7,6.35,16.25,16.44,16.19,28.56s-5.18,22.13-16.06,28.54c-16.58,9.77-33.11,19.65-49.74,29.34q-40.65,23.68-81.44,47.15C121.75,271.61,110.82,276.55,96.37,276ZM70.65,265c.7.84,1.26,2.2,2.11,2.43,6.33,1.65,12.65,3.78,19.11,4.42,13.52,1.35,25.85-2.69,37.47-9.61,10.93-6.51,22.18-12.46,33.22-18.8q21.08-12.1,42-24.47c1.59-.94,2.74-2.63,4.1-4,3.63-1.51,7.51-2.61,10.86-4.59,13.71-8.14,27.18-16.71,40.91-24.82a28.74,28.74,0,0,0,1.93-48.65c-7.09-4.84-14.61-9.07-22.06-13.33-10.42-6-20.84-12-31.5-17.46-10.15-5.25-21.37-5.18-32.21-3.74-12.16,1.62-22.54,8.47-33.05,14.37-16.1,9-32,18.43-47.89,27.8-1.88,1.1-3.34,2.93-5,4.42-1.5.33-3.21.32-4.47,1.06-7.34,4.3-14.56,8.79-21.85,13.17-16.56,10-34.92,17-48.9,31.15-6.9,7-9.28,17.8-7,25.42,3,10,10,16.65,18.56,21.86,7.43,4.5,14.83,9.06,22.48,13.16C56.37,258.52,63.58,261.63,70.65,265Z" style="fill: #fdfdfd"/>
      <path d="M90.65,149c1.65-1.49,3.11-3.32,5-4.42,15.91-9.37,31.79-18.77,47.89-27.8,10.51-5.9,20.89-12.75,33.05-14.37,10.84-1.44,22.06-1.51,32.21,3.74,10.66,5.51,21.08,11.5,31.5,17.46,7.45,4.26,15,8.49,22.06,13.33a28.74,28.74,0,0,1-1.93,48.65c-13.73,8.11-27.2,16.68-40.91,24.82-3.35,2-7.23,3.08-10.86,4.59v-1c6.36-3.72,12.78-7.34,19.06-11.17,5.72-3.49,11.3-7.21,16.94-10.83l5-4,13-8c11.68-5.29,13.49-27.06,3-36a11.56,11.56,0,0,0-1.92-2.23c-8-5.46-16-11-24.17-16.19-2.66-1.68-5.92-2.41-8.91-3.58a74.07,74.07,0,0,0-6.77-4.16c-9.48-4.57-18.23-11-29.23-11.84h-16l-8,1c-5,1.89-10.31,3.31-15,5.79-8.39,4.41-16.45,9.48-24.66,14.25-7.79,4.53-15.55,9.1-23.41,13.51-5.23,2.94-10.59,5.64-15.9,8.45Z" style="fill: #fafbfc"/>
      <path d="M90.65,149h1c-3.1,2.11-6.08,4.41-9.31,6.3-7.48,4.38-15.17,8.38-22.57,12.88-3.62,2.2-6.76,5.19-10.12,7.82l-4,2c-10.58,4.93-21,10.17-29,19-5.65,3.08-7.92,14.66-6.15,20.51,1.11,3.68,3.39,7,5.15,10.49l4,3c1.06,1.37,1.87,3.13,3.24,4,4.81,3.16,9.82,6,14.76,9h1l17,9c1.23,1.35,2.25,3,3.73,4,4.33,2.82,8.84,5.36,13.27,8h-2c-7.07-3.37-14.28-6.48-21.18-10.18-7.65-4.1-15-8.66-22.48-13.16-8.58-5.21-15.57-11.83-18.56-21.86-2.28-7.62.1-18.41,7-25.42,14-14.18,32.34-21.19,48.9-31.15,7.29-4.38,14.51-8.87,21.85-13.17C87.44,149.32,89.15,149.33,90.65,149Z" style="fill: #fafbfb"/>
      <path d="M70.65,265h2a9,9,0,0,1,3,.18c12.33,5.11,24.86,6,37.41,1.22,5.08-1.95,9.77-4.9,14.63-7.4l10-6,3-2c2.41-.76,5-1.14,7.21-2.35,4.69-2.6,9.06-5.77,13.72-8.43,8-4.56,16.13-8.88,24.18-13.35,7.65-4.25,15.26-8.58,22.89-12.87v1c-1.36,1.34-2.51,3-4.1,4q-20.93,12.36-42,24.47c-11,6.34-22.29,12.29-33.22,18.8-11.62,6.92-24,11-37.47,9.61-6.46-.64-12.78-2.77-19.11-4.42C71.91,267.2,71.35,265.84,70.65,265Z" style="fill: #fafbfb"/>
      <path d="M49.65,176c3.36-2.63,6.5-5.62,10.12-7.82,7.4-4.5,15.09-8.5,22.57-12.88,3.23-1.89,6.21-4.19,9.31-6.3,5.31-2.81,10.67-5.51,15.9-8.45,7.86-4.41,15.62-9,23.41-13.51,8.21-4.77,16.27-9.84,24.66-14.25,4.72-2.48,10-3.9,15-5.79l-28,16-9,6a9.39,9.39,0,0,0-2.87.58Q113.17,139.73,95.65,150l-15,9Z" style="fill: #f7f8fa"/>
      <path d="M208.65,214c-7.63,4.29-15.24,8.62-22.89,12.87-8,4.47-16.18,8.79-24.18,13.35-4.66,2.66-9,5.83-13.72,8.43-2.17,1.21-4.8,1.59-7.21,2.35l3-3,10-6a25.31,25.31,0,0,0,4.07-1.49q27.45-15.69,54.81-31.52c2.89-1.68,5.42-4,8.12-6l6-3c1.93-.74,3.9-1.39,5.78-2.25,4.1-1.86,8.15-3.83,12.22-5.75-5.64,3.62-11.22,7.34-16.94,10.83C221.43,206.66,215,210.28,208.65,214Z" style="fill: #f6f8fa"/>
      <path d="M262.65,180l-13,8-2-3,10-8,4-5,3-6h2c.67-1.27,1.71-2.48,1.94-3.82,1.19-7.05-2.69-12.53-5.94-18.18l3,2,3,5c1.83,7.88,1.5,15.58-2,23Z" style="fill: #f1f4f7"/>
      <path d="M142.65,123l28-16,8-1h16v2l-17,1-33,15Z" style="fill: #f1f4f6"/>
      <path d="M194.65,108v-2c11,.83,19.75,7.27,29.23,11.84a74.07,74.07,0,0,1,6.77,4.16c1.44,1,2.85,2.11,4.31,3.13,4.22,3,8.46,5.91,12.69,8.87-5.48-3-11-5.88-16.44-9C219.5,118.3,208.22,110.7,194.65,108Z" style="fill: #f3f5f7"/>
      <path d="M247.65,134c-4.23-3-8.47-5.9-12.69-8.87-1.46-1-2.87-2.08-4.31-3.13,3,1.17,6.25,1.9,8.91,3.58,8.19,5.19,16.16,10.73,24.17,16.19a11.56,11.56,0,0,1,1.92,2.23v2l-3-2-12-8Z" style="fill: #f6f8f9"/>
      <path d="M265.65,146v-2c10.49,8.94,8.68,30.71-3,36l4-6c5.47-5.68,6.4-16.27,2-23Z" style="fill: #f8f9fa"/>
      <path d="M247.65,185l2,3-5,4c-4.07,1.92-8.12,3.89-12.22,5.75-1.88.86-3.85,1.51-5.78,2.25,3.14-2.07,6.35-4,9.4-6.22s5.74-4.5,8.61-6.77Z" style="fill: #f3f5f7"/>
      <path d="M191.65,106h0Z" style="fill: #f5f7f9"/>
      <path d="M179.65,106h0Z" style="fill: #f5f7f9"/>
      <path d="M55.65,253l-17-9c.33-1.34.67-2.67,1-4l8,2h0l1,2,13,8c.57.94.91,2.29,1.75,2.77,11.73,6.66,24,11.81,37.83,10,3.41-.46,8.36,1.25,10.42-3.75l13-6h6l-5,4a61.72,61.72,0,0,1-25.38,8C83.46,268.39,69.23,261.8,55.65,253Z" style="fill: #f0f3f6"/>
      <path d="M49.65,176l31-17h3l-1,3-3,1c-2.21,1.11-4.61,2-6.58,3.41-2.66,2-5,4.36-7.44,6.57l-2,1-1,1-2,1-2,2-3,2-5,2-5,3h-1l-3-2,4-5Z" style="fill: #eef2f5"/>
      <path d="M45.65,178l-4,5-14,8c-16.81,9.59-19.34,30.36-3,42v1l-5-3-4-3c-.37-1.09-.71-2.18-1.12-3.25-2.39-6.27-4.78-12.55-1.8-19.31,1.25-2.84,2.61-5.63,3.92-8.44C24.68,188.17,35.07,182.93,45.65,178Z" style="fill: #f4f6f8"/>
      <path d="M55.65,253c13.58,8.8,27.81,15.39,44.62,14a61.72,61.72,0,0,0,25.38-8h2c-4.86,2.5-9.55,5.45-14.63,7.4-12.55,4.81-25.08,3.89-37.41-1.22a9,9,0,0,0-3-.18c-4.43-2.65-8.94-5.19-13.27-8C57.9,256,56.88,254.35,55.65,253Z" style="fill: #f6f7f9"/>
      <path d="M16.65,197c-1.31,2.81-2.67,5.6-3.92,8.44-3,6.76-.59,13,1.8,19.31.41,1.07.75,2.16,1.12,3.25-1.76-3.49-4-6.81-5.15-10.49C8.73,211.66,11,200.08,16.65,197Z" style="fill: #f7f8fa"/>
      <path d="M24.65,234v-1l1-1,4,1,10,7c-.33,1.33-.67,2.66-1,4h-1c-.83-1.25-1.39-2.9-2.53-3.68C31.75,238,28.16,236.08,24.65,234Z" style="fill: #f0f3f6"/>
      <path d="M24.65,234c3.51,2.08,7.1,4,10.47,6.32,1.14.78,1.7,2.43,2.53,3.68-4.94-3-9.95-5.82-14.76-9-1.37-.89-2.18-2.65-3.24-4Z" style="fill: #f5f7f8"/>
      <path d="M130.65,255h-4l8-6,4-4h1l5-1c-.34,1.34-.67,2.67-1,4l-3,3-3,2Z" style="fill: #ebeff3"/>
      <path d="M130.65,255l7-2-10,6h-2Z" style="fill: #f5f7f9"/>
      <path d="M142.65,123l2,1v2c-4,2.34-8.12,4.51-12,7.06-4.78,3.15-9.36,6.61-14,9.93q-4,2-8,4l-3,1-3-1a45.21,45.21,0,0,1,3.88-2.92C116.88,139,125.27,134,133.65,129Z" style="fill: #eef2f5"/>
      <path d="M133.65,129c-8.38,5-16.77,10-25.12,15.08a45.21,45.21,0,0,0-3.88,2.92l-10,5,1-2q17.55-10.23,35.13-20.42A9.39,9.39,0,0,1,133.65,129Z" style="fill: #f1f4f6"/>
      <path d="M95.65,150l-1,2-11,7h-3Z" style="fill: #f3f5f7"/>
      <path d="M220.65,203c-2.7,2-5.23,4.31-8.12,6q-27.33,15.88-54.81,31.52a25.31,25.31,0,0,1-4.07,1.49l16-10,19-11,31-18Z" style="fill: #f1f4f6"/>
      <path d="M169.65,232l-16,10-10,6c.33-1.34.66-2.67,1-4l12-8,12-5Z" style="fill: #eef2f5"/>
      <path d="M220.65,203h-3l8-7,4-2,15-7c-2.87,2.27-5.65,4.64-8.61,6.77s-6.26,4.15-9.4,6.22Z" style="fill: #ecf0f4"/>
      <path d="M266.65,166h-3v-2c3.2-8.91-1.6-18.53-10-20l-6-4v-1l4-1c5.06,3.09,10.25,6.31,12,12.31C265.17,155.39,265.7,160.76,266.65,166Z" style="fill: #e9edf2"/>
      <path d="M244.66,187l-15,7c1.15-1.24,2.1-2.76,3.47-3.67,6.79-4.53,13.68-8.89,20.54-13.32h4l-10,8Z" style="fill: #e1e7ed"/>
      <path d="M266.65,166c-.95-5.24-1.48-10.61-3-15.69-1.77-6-7-9.22-12-12.31-.33-.67-.67-1.33-1-2l12,8c3.25,5.65,7.13,11.13,5.94,18.18C268.36,163.52,267.32,164.73,266.65,166Z" style="fill: #f0f3f6"/>
      <path d="M257.66,177h-4c.33-.67.66-1.34,1-2l5-7,2-13,2,9v2c0,.33,0,.66,0,1l-1,1-1,4Z" style="fill: #d4dde6"/>
      <path d="M268.65,151c4.4,6.73,3.47,17.32-2,23C270.15,166.58,270.48,158.88,268.65,151Z" style="fill: #f6f8f9"/>
      <path d="M263.65,167c0-.34,0-.67,0-1h1l-3,6c.33-1.34.66-2.67,1-4Z" style="fill: #e2e8ee"/>
      <path d="M250.65,136c.33.67.67,1.33,1,2l-4,1-9-5-7-5-17-10-21-8c-1.25-.67-2.48-1.83-3.77-1.91-4.07-.25-8.15-.09-12.23-.09l17-1c13.57,2.7,24.85,10.3,36.56,17,5.41,3.1,11,6,16.44,9Z" style="fill: #edf0f4"/>
      <path d="M177.65,109c4.08,0,8.16-.16,12.23.09,1.29.08,2.52,1.24,3.77,1.91a31.32,31.32,0,0,0-4.85-.76c-4.56,0-9.3-.69-13.15,2.76h-2c-9.29.86-16.36,6.55-24,11l-5,2v-2Z" style="fill: #e7ecf1"/>
      <path d="M111.65,261c-2.06,5-7,3.29-10.42,3.75-13.81,1.84-26.1-3.31-37.83-10-.84-.48-1.18-1.83-1.75-2.77l9,4c.68.67,1.25,1.63,2.08,2,12,5.18,24.21,6.85,36.91,3Z" style="fill: #e7ecf1"/>
      <path d="M70.66,256l-9-4-13-8,1.29-.86L47.64,242h0c0-.34,0-.69,0-1l18,9,9,6Z" style="fill: #d9e1e8"/>
      <path d="M47.66,241c0,.34,0,.69,0,1l-8-2-10-7-1-4Z" style="fill: #dbe2e9"/>
      <path d="M111.65,261h-2v-1l4-2,3-1h1l1-1h1l1-1h0l2-1h2c0,.33,0,.66,0,1Z" style="fill: #dee5ec"/>
      <path d="M124.65,255c0-.33,0-.66,0-1l10-5-8,6Z" style="fill: #e7ecf0"/>
      <path d="M47.64,242,50,243.14l-1.29.86C48.33,243.34,48,242.67,47.64,242Z" style="fill: #dbe2e9"/>
      <path d="M25.65,232l-1,1c-16.38-11.63-13.85-32.4,3-42l14-8,3,2-7,5-7,4h-1c-10.76,3.79-19.49,19.05-10.58,30C21.24,226.69,23.46,229.33,25.65,232Z" style="fill: #edf0f4"/>
      <path d="M107.65,148l3-1-1,5-7,5-11,6-1,1h0l-2,0c-2.42.93-4.89,1.75-7.24,2.83-4.29,2-8.51,4.1-12.76,6.17,1.25-1.13,2.51-2.24,3.75-3.37L79.66,163l3-1,21-11,1-1Z" style="fill: #d8e0e8"/>
      <path d="M107.65,148l-3,2-1,1-21,11c.33-1,.67-2,1-3l11-7,10-5Z" style="fill: #e9eef2"/>
      <path d="M79.66,163l-7.26,6.62c-1.24,1.13-2.5,2.24-3.75,3.37l-1,0-2,0h0c2.47-2.21,4.78-4.62,7.44-6.57C75.05,165,77.45,164.12,79.66,163Z" style="fill: #e3e9ee"/>
      <path d="M37.64,190l7-5h2v1l-1,1-2,1-3,2h-3Z" style="fill: #dbe2e9"/>
      <path d="M46.65,185h-1l5-3c0,.33,0,.67,0,1s0,.66,0,1h-2l-1,1Z" style="fill: #dbe3ea"/>
      <path d="M50.66,183v-1l5-2,0,.05Z" style="fill: #d9e1e8"/>
      <path d="M58.65,178l2-2h2l-4,2Z" style="fill: #d9e1e8"/>
      <path d="M55.64,180l3-2v0l-1,2-2,0Z" style="fill: #d9e1e8"/>
      <path d="M62.65,176h-2l2-1h0Z" style="fill: #e1e7ed"/>
      <path d="M63.65,174l2-1h0l-2,1Z" style="fill: #e1e7ed"/>
      <path d="M62.64,175l1-1h0l-1,1Z" style="fill: #e1e7ed"/>
      <path d="M25.65,232c-2.19-2.67-4.41-5.31-6.58-8-8.91-11-.18-26.22,10.58-30-2.47,2.64-5,5.24-7.4,7.93-4.19,4.64-4.95,13-1.61,17.08l4,6,4,4,1,4Z" style="fill: #e1e7ed"/>
      <path d="M156.65,236l-12,8-5,1v-1l7-6c4.26-2.08,8.63-4,12.75-6.34,2-1.13,3.52-3.09,5.25-4.67l1-1,9-5,5-2,10-4v1l-13,8Z" style="fill: #dbe2e9"/>
      <path d="M134.64,249l-10,5h-2l-2,1h-2v-1c1.95-1.14,4-2.15,5.83-3.45,3.45-2.43,6.79-5,10.17-7.54l4,0v2Z" style="fill: #d2dbe4"/>
      <path d="M138.65,245v-1h1v1Z" style="fill: #d9e1e9"/>
      <path d="M144.65,126l5-2h3l-1,2-5,4-2,1c-4.83,2.34-9.63,4.74-14.5,7-3.8,1.76-7.67,3.34-11.51,5,4.67-3.32,9.25-6.78,14-9.93C136.53,130.5,140.64,128.33,144.65,126Z" style="fill: #dbe2e9"/>
      <path d="M118.63,143c3.84-1.66,7.71-3.24,11.51-5,4.87-2.25,9.67-4.65,14.5-7l-6,5-16,10-13,6,1-5Q114.65,145,118.63,143Z" style="fill: #cbd6e0"/>
      <path d="M217.65,203h2l-31,18-1-1,8-6,14-8Z" style="fill: #eef2f5"/>
      <path d="M187.65,220l1,1-19,11-1-1,8-5Z" style="fill: #eef2f5"/>
      <path d="M176.65,226l-8,5-12,5,20-12Z" style="fill: #e3e9ee"/>
      <path d="M254.65,175l-1,2c-6.86,4.43-13.75,8.79-20.54,13.32-1.37.91-2.32,2.43-3.47,3.67l-4,2h-1l-10,4,0-2,2.05-2.94,2.94-1.06,5-2,21-12Z" style="fill: #d3dce5"/>
      <path d="M224.65,196h1l-8,7-8,3a31.24,31.24,0,0,1,3-2.46C216.6,201,220.64,198.51,224.65,196Z" style="fill: #e5ebf0"/>
      <path d="M261.65,155l-2,13v-2c.38-6.88.48-13.72-5.94-18.31-1-.72-2.69-.48-4.06-.69l-4-2-3.05-6,5,1,6,4Z" style="fill: #ccd7e1"/>
      <path d="M261.65,155l-8-11c8.4,1.49,13.2,11.11,10,20Z" style="fill: #dde4eb"/>
      <path d="M247.65,140l-5-1h0l-2-1-5-4h3l9,5Z" style="fill: #d4dde5"/>
      <path d="M259.65,166v2l-5,7-9,5v-3l2-2,1-1q3-3,6-6c.34-.67.68-1.34,1-2Z" style="fill: #c4d1dc"/>
      <path d="M263.65,167l-1,1Z" style="fill: #dee5ec"/>
      <path d="M238.63,134h-3c-4.89-2.7-9.63-5.71-14.68-8-6.32-2.91-11.45-8.82-19.32-8l-4-1c-.95-1-1.74-2.71-2.87-3-8.24-2.08-16.3-1.11-24.14,2h-2l5-3h2a47.3,47.3,0,0,1,30.87,3.42c2.68,1.26,5.42,2.39,8.13,3.58l17,9Z" style="fill: #d7dfe7"/>
      <path d="M214.65,120c-2.71-1.19-5.45-2.32-8.13-3.58A47.3,47.3,0,0,0,175.65,113c3.85-3.45,8.59-2.77,13.15-2.76a31.32,31.32,0,0,1,4.85.76l21,8C214.65,119.33,214.65,119.66,214.65,120Z" style="fill: #e0e6ec"/>
      <path d="M214.65,120c0-.34,0-.67,0-1l17,10Z" style="fill: #e1e7ed"/>
      <path d="M173.65,113l-5,3-16,8h-3C157.29,119.55,164.36,113.86,173.65,113Z" style="fill: #dfe6ec"/>
      <path d="M109.65,260v1c-12.7,3.85-25,2.18-36.91-3-.83-.36-1.4-1.32-2.08-2h4l3,1c8.6,4.6,17.66,5.11,27,3Z" style="fill: #dce4eb"/>
      <path d="M28.66,229l-4-4,1-3a27,27,0,0,0,3.41,2.85C34.22,228,39.46,231,44.67,234l4,2a37.07,37.07,0,0,0,4.07,3.48c4.6,2.92,9.29,5.7,13.95,8.53l-1,2-18-9Z" style="fill: #c3cfdb"/>
      <path d="M65.65,250l1-2h1l2,1c1.46,1.38,2.71,3.12,4.41,4.06,3.41,1.87,7.06,3.3,10.61,4.92h0l-7-1-3-1Z" style="fill: #ccd7e1"/>
      <path d="M109.65,260l-5,0-20-2h0c2,0,4.09-.4,5.94.12,6.54,1.83,12.73.32,18.87-1.62,1.21-.38,2.14-1.63,3.2-2.49l2,0h4v2h-1l-1,1h0l-3,1Z" style="fill: #ccd7e1"/>
      <path d="M113.65,258l3-1Z" style="fill: #d9e1e8"/>
      <path d="M120.65,255l2-1Z" style="fill: #dbe2e9"/>
      <path d="M118.65,256v-1h1v1h-1Z" style="fill: #d9e1e8"/>
      <path d="M119.65,256v-1h1Z" style="fill: #dbe2e9"/>
      <path d="M116.65,257l1-1v1Z" style="fill: #d9e1e8"/>
      <path d="M117.65,257v-1h1Z" style="fill: #dbe2e9"/>
      <path d="M20.64,219c-3.34-4-2.58-12.44,1.61-17.08,2.42-2.69,4.93-5.29,7.4-7.93h1c.33.66.67,1.32,1,2l-1,3h1l-2,2-4,2c-1.29,1.28-3.4,2.39-3.72,3.88C21.12,210.85,21,215,20.64,219Z" style="fill: #d5dee6"/>
      <path d="M31.65,196l-1-2,7-4h1v1h0l-1,1-2,1-1,1c0,.33,0,.66,0,1h-1l-1,1Z" style="fill: #d9e1e8"/>
      <path d="M109.64,152l13-6h3c0,.33,0,.67,0,1l-7,4-9,5-5,2-2-1Z" style="fill: #aec0cf"/>
      <path d="M67.67,173l1,0c4.25-2.07,8.47-4.2,12.76-6.17,2.35-1.08,4.82-1.9,7.24-2.83l-2,2-1,2-7,4-11,5h-2l1-2Z" style="fill: #c5d2dd"/>
      <path d="M102.65,157l2,1h0l-2,1h0l-1,1h-1l-1,1-5,3-2,1h-2v-1h0l1-1Z" style="fill: #b7c6d4"/>
      <path d="M90.63,164c0,.34,0,.68,0,1l-2,1h-2l2-2Z" style="fill: #c2cfdb"/>
      <path d="M91.65,163l-1,1Z" style="fill: #c2cfdb"/>
      <path d="M103.65,151l1-1Z" style="fill: #e3e9ee"/>
      <path d="M67.67,173l-1,2-4,1h0v-1l1-1,2-1Z" style="fill: #d8e0e8"/>
      <path d="M40.65,190l3-2h0l-3,2Z" style="fill: #d1dbe4"/>
      <path d="M46.65,185h2v1h-2Z" style="fill: #d2dce4"/>
      <path d="M38.65,191v-1h2v1h-2Z" style="fill: #d1dbe4"/>
      <path d="M43.65,188l2-1h0c-.66.34-1.33.67-2,1Z" style="fill: #d1dbe4"/>
      <path d="M46.65,186h1l-2,1h0C46,186.66,46.32,186.33,46.65,186Z" style="fill: #d1dbe4"/>
      <path d="M65.65,177h2l-12,8-7,3,1-2,1-1v-1c0-.33,0-.66,0-1l5-3,2,0Z" style="fill: #c4d1dc"/>
      <path d="M50.65,184v1h-2v-1Z" style="fill: #d2dce4"/>
      <path d="M48.65,184v1h-1Z" style="fill: #dbe2e9"/>
      <path d="M65.65,177l-8,3,1-2,4-2,4-1C66.31,175.67,66,176.33,65.65,177Z" style="fill: #d3dde5"/>
      <path d="M20.64,219c.39-4,.48-8.16,1.33-12.11.32-1.49,2.43-2.6,3.72-3.88-.35,1.66-.7,3.32-1,5-3.07,3.66-2.73,8.4,1,14l-1,3Z" style="fill: #c8d4df"/>
      <path d="M214.63,198c0,.68,0,1.35,0,2l-25,15-10,4,7-7,11-6Z" style="fill: #ccd7e1"/>
      <path d="M189.65,215l25-15,10-4c-4,2.51-8.05,5-12,7.54a31.24,31.24,0,0,0-3,2.46l-14,8-6,2Z" style="fill: #dde4eb"/>
      <path d="M189.65,216l6-2-8,6-11,6v-2Z" style="fill: #e3e9ee"/>
      <path d="M186.66,212l-7,7-5,2-3-1,14-8Z" style="fill: #bac8d6"/>
      <path d="M164.66,227c-1.73,1.58-3.26,3.54-5.25,4.67-4.12,2.35-8.49,4.26-12.75,6.34v0l3-3,8-5,1-1,2-1h1l2-1Z" style="fill: #ccd7e1"/>
      <path d="M171.65,220l3,1-9,5h-2q3.51-3,7-6Z" style="fill: #bfcdd9"/>
      <path d="M139.65,244h-1v-2l2-1h0l3-2,3-1v0Z" style="fill: #d3dce5"/>
      <path d="M163.65,226h2l-1,1h-1v-1Z" style="fill: #c4d1dc"/>
      <path d="M118.65,254h-4c1-.72,2.07-1.4,3.06-2.15,3-2.27,6-4.56,8.93-6.85l1-1,1,1,4-1,1-1h1v0c-3.38,2.52-6.72,5.11-10.17,7.54C122.64,251.85,120.6,252.86,118.65,254Z" style="fill: #c2cfdb"/>
      <path d="M138.65,242v1l-4,0v0l3-3,3-1h1c-.33.67-.67,1.33-1,2h0Z" style="fill: #c1ceda"/>
      <path d="M146.64,130l5-4c1.62-.75,3.22-1.56,4.86-2.26,3.71-1.6,7.44-3.15,11.16-4.72l-13,8Z" style="fill: #c8d4df"/>
      <path d="M146.64,130l8-3v1l-5,4-8,4h-3l6-5Z" style="fill: #bac8d6"/>
      <path d="M167.67,119c-3.72,1.57-7.45,3.12-11.16,4.72-1.64.7-3.24,1.51-4.86,2.26.33-.66.67-1.32,1-2l16-8h2v2Z" style="fill: #d0dae3"/>
      <path d="M138.64,136h3l-5,4-11,6h-3Z" style="fill: #b6c6d4"/>
      <path d="M214.63,198l-17,8-3-1,5-4,4-2c2.26-.82,4.49-1.73,6.79-2.44,2-.63,4.15-1,6.23-1.54Z" style="fill: #b4c4d3"/>
      <path d="M245.65,177v3l-21,12-2-1,1-2c4.76-2.07,9.59-4,14.23-6.31,1-.48,1.2-2.42,1.77-3.69l1-1h2l2-1Z" style="fill: #c3d0db"/>
      <path d="M223.67,189l-1,2-3.06,3L216.68,195c-2.08.5-4.19.91-6.23,1.54-2.3.71-4.53,1.62-6.79,2.44,2.16-1.42,4.38-2.76,6.48-4.27,2.56-1.83,5-3.81,7.53-5.72l2-1h1l1-1,2,0Z" style="fill: #a2b6c8"/>
      <path d="M219.62,194l3.06-3,2,1Z" style="fill: #c1ceda"/>
      <path d="M259.65,166h-4c0-3,0-6,0-9l-2-5-4-5c1.37.21,3.06,0,4.06.69C260.13,152.28,260,159.12,259.65,166Z" style="fill: #bfcdd9"/>
      <path d="M242.64,139q1.52,3,3.05,6l-10-4-11-7-1-2,15,8,3-1h1Z" style="fill: #adbece"/>
      <path d="M235.65,141l10,4,4,2,4,5-1,2q-8-5.5-16-11C236.32,142.33,236,141.67,235.65,141Z" style="fill: #9fb3c6"/>
      <path d="M241.68,139l-3,1-18-11-12-6-7-5c7.87-.86,13,5,19.32,8,5.05,2.33,9.79,5.34,14.68,8l5,4Z" style="fill: #c8d4de"/>
      <path d="M241.68,139l-1-1,2,1h-1Z" style="fill: #ccd7e1"/>
      <path d="M254.66,168q-3,3-6,6h0c0-.33,0-.66,0-1h0l1-1,2-2,1-1h0l2-1Z" style="fill: #abbdcd"/>
      <path d="M245.65,177h-1v-1l2-1h1Z" style="fill: #abbdcd"/>
      <path d="M255.69,166c-.35.67-.69,1.34-1,2l0,0c0-.66,0-1.32,0-2h1Z" style="fill: #abbdcd"/>
      <path d="M248.65,174l-1,1h0c.34-.33.67-.66,1-1Z" style="fill: #abbdcd"/>
      <path d="M201.65,118l7,5-3,1-9-3-4-1-2,0h-9l-5,1-1,0-5,2-1,0c-1.45,0-3-.27-4.32.23-3.63,1.41-7.12,3.16-10.68,4.78v-1l13-8,3-1c8.87-3.93,17.92-3.06,27-1Z" style="fill: #b7c6d4"/>
      <path d="M197.66,117c-9.09-2-18.14-2.91-27,1v-2c7.84-3.14,15.9-4.11,24.14-2C195.92,114.26,196.71,115.94,197.66,117Z" style="fill: #d0dae3"/>
      <path d="M84.65,258l20,2c-9.35,2.1-18.41,1.59-27-3Z" style="fill: #d3dce5"/>
      <path d="M48.64,236l-4-2-6-5v-1c1.47.56,3,1.07,4.4,1.7,3.22,1.4,6.41,2.86,9.61,4.3l11,6,1,3h-2Z" style="fill: #a0b5c7"/>
      <path d="M38.65,229l6,5c-5.21-3-10.45-6-15.61-9.13A27,27,0,0,1,25.65,222c-3.73-5.61-4.07-10.35-1-14a27,27,0,0,0,.15,5.26c.95,4.38,1.71,9,6.85,10.76Z" style="fill: #b5c5d3"/>
      <path d="M48.64,236l14,7c1.67,1.67,3.33,3.35,5,5h-1c-4.66-2.83-9.35-5.61-13.95-8.53A37.07,37.07,0,0,1,48.64,236Z" style="fill: #b0c1d1"/>
      <path d="M112.66,254c-1.06.86-2,2.11-3.2,2.49-6.14,1.94-12.33,3.45-18.87,1.62-1.85-.52-4-.11-5.94-.12-3.55-1.62-7.2-3.05-10.61-4.92-1.7-.94-3-2.68-4.4-4.06,4.41,1.85,8.69,4.36,13.29,5.39,5.43,1.2,11.14,1.12,16.73,1.59Z" style="fill: #bdcbd8"/>
      <path d="M99.66,256c-5.59-.47-11.3-.39-16.73-1.59-4.6-1-8.88-3.54-13.29-5.39l-2-1c-1.66-1.67-3.32-3.35-5-5h2l20,10,14,3Z" style="fill: #abbdce"/>
      <path d="M99.66,256h-1l14-4,12-7h2c-3,2.29-5.94,4.58-8.93,6.85-1,.75-2,1.43-3.06,2.15l-2,0Z" style="fill: #acbece"/>
      <path d="M31.65,224c-5.14-1.77-5.9-6.38-6.85-10.76a27,27,0,0,1-.15-5.26c.34-1.65.69-3.31,1-5l4-2,2,1c-1.67,3.83-4.56,7.64-4.63,11.5C27,217,30,220.5,31.65,224Z" style="fill: #a9bbcc"/>
      <path d="M31.63,199h-1l3-3h0l1-1h0l2-1,1-1,3-2h2l-3,4-2,1-3,2h0Z" style="fill: #c0ceda"/>
      <path d="M31.63,199l3-1-2,3-1,1-2-1Z" style="fill: #b3c3d2"/>
      <path d="M33.65,196l-3,3,1-3h2Z" style="fill: #c8d4de"/>
      <path d="M40.65,191l-3,2h-2l2-1,1-1h2Z" style="fill: #cdd7e1"/>
      <path d="M36.65,194l-2,1c0-.33,0-.66,0-1h2Z" style="fill: #c8d4de"/>
      <path d="M33.65,196h-1l1-1v1Z" style="fill: #cdd7e1"/>
      <path d="M38.65,191l-1,1Z" style="fill: #d1dbe4"/>
      <path d="M35.65,194h-1l1-1h0Z" style="fill: #cdd7e1"/>
      <path d="M33.65,196v-1h1Z" style="fill: #c8d4de"/>
      <path d="M100.65,160h1c.33-.34.67-.67,1-1h0l2-1h0l5-2v1l-4,3-6,3-3,1h-2l5-3Z" style="fill: #a9bbcc"/>
      <path d="M118.65,151l7-4,6-2q-5.49,3.51-11,7h-2Z" style="fill: #a0b4c7"/>
      <path d="M131.65,145l-6,2c0-.33,0-.67,0-1l11-6h1v1l-1,1-2,1-3,2Z" style="fill: #a2b6c8"/>
      <path d="M118.65,151v1l-6,4-1,1h-2v-1Z" style="fill: #a2b6c8"/>
      <path d="M55.65,185l12-8,11-5,0,0c-3.43,2.54-6.91,5-10.27,7.64-1.68,1.32-3.15,2.91-4.72,4.37l-1,1-6,1Z" style="fill: #b1c2d1"/>
      <path d="M78.65,172l7-4h0c0,.33,0,.66,0,1l-5,3h-2Z" style="fill: #b5c5d3"/>
      <path d="M86.66,166h2l-1,2h-2Z" style="fill: #b5c5d3"/>
      <path d="M87.65,168l1-2,2-1h2v1Z" style="fill: #b0c1d0"/>
      <path d="M92.65,166v-1l2-1h2l-3,2Z" style="fill: #a8bacb"/>
      <path d="M104.65,158l-2,1Z" style="fill: #aec0cf"/>
      <path d="M100.65,160l-1,1Z" style="fill: #aec0cf"/>
      <path d="M102.65,159c-.33.33-.67.66-1,1C102,159.66,102.32,159.33,102.65,159Z" style="fill: #aec0cf"/>
      <path d="M42.66,191h-2v-1l3-2c.67-.33,1.34-.66,2-1l2-1h2l-1,2Z" style="fill: #cdd7e1"/>
      <path d="M49.65,186h-1v-1h2C50.31,185.33,50,185.66,49.65,186Z" style="fill: #d1dbe4"/>
      <path d="M42.66,191l6-3,7-3,1,1-17,9Z" style="fill: #adbecf"/>
      <path d="M194.68,205l3,1-11,6h-1c.33-.68.66-1.35,1-2Z" style="fill: #b6c6d4"/>
      <path d="M186.65,210c-.34.68-.67,1.35-1,2l-14,8h-1l-1,0v-1c0-.34,0-.67,0-1l5-4,5-2Z" style="fill: #a7bacb"/>
      <path d="M157.65,230l-8,5h-1c0-.33,0-.66,0-1h1l1-1h0l2-1,4-2Z" style="fill: #c3d0dc"/>
      <path d="M148.65,235h1l-3,3-3,1h-1v-1l2-1,1-1,2-1h1Z" style="fill: #c6d2dd"/>
      <path d="M163.65,227l-2,1v-1h2Z" style="fill: #c4d1dc"/>
      <path d="M160.65,228l-2,1h0l2-1Z" style="fill: #bfcdd9"/>
      <path d="M157.65,230h-1l2-1h0Z" style="fill: #bfcdd9"/>
      <path d="M161.65,227v1h-1c0-.33,0-.66,0-1Z" style="fill: #bfcdd9"/>
      <path d="M161.65,227h-1l-1-1,2-2,2-1,5-3h1l1,0q-3.49,3-7,6h0c-.66.34-1.33.67-2,1Z" style="fill: #b6c6d4"/>
      <path d="M142.65,239h1l-3,2c.33-.67.67-1.33,1-2Z" style="fill: #c7d3de"/>
      <path d="M138.65,242l2-1Z" style="fill: #c7d3de"/>
      <path d="M161.65,227c.67-.33,1.34-.66,2-1v1Z" style="fill: #bfcdd9"/>
      <path d="M126.63,245h-2c.35-.66.69-1.32,1-2l8-4h2v1h-1l-1,1h-1l-1,1h0l-1,1h-1l-1,1h-1Z" style="fill: #a7bacb"/>
      <path d="M129.66,243h1l1-1h1l1-1h1l1-1h2l-3,3h-1l-1,1-4,1c0-.33,0-.66,0-1Z" style="fill: #b6c5d4"/>
      <path d="M132.65,244l1-1C133.32,243.33,133,243.66,132.65,244Z" style="fill: #beccd9"/>
      <path d="M128.65,244c0,.33,0,.66,0,1l-1-1Z" style="fill: #abbdcd"/>
      <path d="M140.65,239l-3,1h0v-1l1-1h2Z" style="fill: #b6c5d4"/>
      <path d="M140.65,239v-1h2v1h-2Z" style="fill: #bac8d6"/>
      <path d="M154.65,128c3.56-1.62,7-3.37,10.68-4.78,1.28-.5,2.87-.18,4.32-.23l-10,6-8,3h-2Z" style="fill: #acbece"/>
      <path d="M149.65,132h2l-2,2-4,2-6,4h-3l5-4Z" style="fill: #a7bacb"/>
      <path d="M186.65,210l-7,2v-1c.33-.67.66-1.34,1-2l4-3,12-6h3v1l-5,4Z" style="fill: #91a8be"/>
      <path d="M199.65,201v-1c.33-.67.66-1.34,1-2s.67-1.33,1-2c2.68-1.48,5.28-3.15,8.06-4.39a81.73,81.73,0,0,1,7.92-2.65l0,.05c-2.51,1.91-5,3.89-7.53,5.72-2.1,1.51-4.32,2.85-6.48,4.27Z" style="fill: #97adc2"/>
      <path d="M223.67,189l0-2,2-2,1-1,1,0,5-1.93,4-2,1,0,1-1h0l1,0c-.57,1.27-.81,3.21-1.77,3.69C233.26,185,228.43,187,223.67,189Z" style="fill: #b1c2d1"/>
      <path d="M244.65,176v1l-2,1v-1h0l1-1h1Z" style="fill: #a9bccc"/>
      <path d="M239.67,179l-1,0c.67-.33,1.33-.67,2-1h0Z" style="fill: #a5b8ca"/>
      <path d="M242.65,177v1h-2Z" style="fill: #a5b8ca"/>
      <path d="M225.66,185l-2,2-2,0h-1v0l3-2h2Z" style="fill: #94abc0"/>
      <path d="M219.65,188l-2,1,0-.05,2-1Z" style="fill: #94abc0"/>
      <path d="M220.65,188h-1l0,0,1-1v0C220.66,187.34,220.65,187.67,220.65,188Z" style="fill: #94abc0"/>
      <path d="M220.65,188c0-.33,0-.66,0-1h1Z" style="fill: #97adc2"/>
      <path d="M255.62,166h-1l1-9,0,0C255.65,160,255.64,163,255.62,166Z" style="fill: #a4b7c9"/>
      <path d="M252.65,154l1-2,2,5,0,0-3-3Z" style="fill: #a4b7c9"/>
      <path d="M235.65,141c.34.67.67,1.33,1,2l-3,1-8-4v-1c-1.53-2.88-3.52-4.68-7-3.05L213.7,132l2,0,1-1,8,3Z" style="fill: #98aec2"/>
      <path d="M224.65,134l-8-3-6-3-5-4,3-1,12,6,3,3Z" style="fill: #aabccd"/>
      <path d="M223.65,132l-3-3,18,11Z" style="fill: #bac9d6"/>
      <path d="M233.65,144l3-1q8,5.49,16,11h0c0,1,0,2,0,3l-8-6Z" style="fill: #91a9bf"/>
      <path d="M251.65,170l-2,2-1,1h0l-2,1-3,1h-1v-1l3-2,8-8v2c-.33,1-.67,2-1,3h0Z" style="fill: #99afc3"/>
      <path d="M252.65,169c.33-1,.67-2,1-3h1c0,.67,0,1.33,0,2Z" style="fill: #a4b7c9"/>
      <path d="M246.65,174l2-1c0,.33,0,.66,0,1-.33.34-.66.67-1,1h-1Z" style="fill: #a9bccc"/>
      <path d="M248.65,173l1-1Z" style="fill: #a9bccc"/>
      <path d="M251.65,170l1-1Z" style="fill: #a4b7c9"/>
      <path d="M246.65,174v1l-2,1h-1c0-.33,0-.66,0-1Z" style="fill: #a5b8ca"/>
      <path d="M205.64,124l5,4,3,3h-5l-4-3c-.65-.49-1.26-1-1.94-1.45-7.49-4.78-15.89-3.37-24.06-3.55v-1h17l1-1,0,0Z" style="fill: #8ca4bb"/>
      <path d="M178.65,122v1l-1,1-16,7-3,1v-1l1-2,10-6,1,0,5-1Z" style="fill: #8fa7bd"/>
      <path d="M190.66,120l2,0v1h-11v-1h9Z" style="fill: #96acc1"/>
      <path d="M190.66,120h0Z" style="fill: #9eb3c6"/>
      <path d="M175.65,122l-5,1,5-2Z" style="fill: #9eb3c6"/>
      <path d="M175.65,122v-1l1,0h4v1h-5Z" style="fill: #96acc1"/>
      <path d="M180.65,121h-4l5-1c0,.34,0,.67,0,1Z" style="fill: #9eb3c6"/>
      <path d="M192.65,121v-1l4,1,0,0h-4Z" style="fill: #9eb3c6"/>
      <path d="M125.66,243c-.34.67-.68,1.33-1,2l-12,7c-.56-.28-1.28-.95-1.67-.79-8.6,3.46-17.42,3.32-26.35,1.82l-20-10c-.34-1-.67-2-1-3h2c.79,1,1.36,2.62,2.39,3,8,3.12,15.89,6.75,24.18,8.67,4.92,1.13,10.93,1.71,15.44-2.7h1l5-2,8-4h4Z" style="fill: #96acc1"/>
      <path d="M65.64,240h-2l-11-6-5-5,1-1h2q13,7,26,14l9,6c-3.07-.92-6.22-1.61-9.18-2.81C72.78,243.67,69.25,241.75,65.64,240Z" style="fill: #7794af"/>
      <path d="M31.65,202l1-1,3,1.94c-9.1,7.37-9.62,12.06-2,18.05l2,2,3,5v1l-7-5C30,220.5,27,217,27,213.5,27.09,209.64,30,205.83,31.65,202Z" style="fill: #9db2c5"/>
      <path d="M38.66,228l-3-5h1l11,6,5,5c-3.2-1.44-6.39-2.9-9.61-4.3C41.62,229.05,40.13,228.54,38.66,228Z" style="fill: #92aabf"/>
      <path d="M84.65,253c8.93,1.5,17.75,1.64,26.35-1.82.39-.16,1.11.51,1.67.79l-14,4Z" style="fill: #a5b8ca"/>
      <path d="M35.66,202.94l-3-1.94,2-3h0l3-2,2-1,17-9,6-1-3.94,4-7.05,5-15,8.92A7.69,7.69,0,0,1,35.66,202.94Z" style="fill: #a2b6c8"/>
      <path d="M37.65,196l-3,2Z" style="fill: #b3c3d2"/>
      <path d="M35.65,194v-1h2l-1,1Z" style="fill: #cdd7e1"/>
      <path d="M99.65,163l6-3h2l-6,4h-2Z" style="fill: #94abc0"/>
      <path d="M99.65,163v2h0l-4,2h-2v-1l3-2Z" style="fill: #9db2c5"/>
      <path d="M107.65,160h-2l4-3h1l-1,2-2,1Z" style="fill: #97adc2"/>
      <path d="M120.65,152q5.5-3.5,11-7h0l2,1-5,4c-1.34.66-2.67,1.33-4,2h-1l-1,1h0l-1,1h-2Z" style="fill: #8ca5bc"/>
      <path d="M120.65,152l-1,2h0l-2,1h0l-4,1h-1l6-4Z" style="fill: #97adc2"/>
      <path d="M133.64,146l-2-1,3-2h0l-1,3Z" style="fill: #a0b4c7"/>
      <path d="M137.65,140h2v0l-2,1h0Z" style="fill: #a0b5c7"/>
      <path d="M134.65,143l2-1h0l-2,1Z" style="fill: #a2b6c8"/>
      <path d="M136.65,142l1-1h0l-1,1Z" style="fill: #a2b6c8"/>
      <path d="M109.64,159l1-2h2v1l-3,1Z" style="fill: #94abc0"/>
      <path d="M112.65,157h-1l1-1h0v1Z" style="fill: #97adc2"/>
      <path d="M58.71,189l3.94-4,1-1,17-10,2-1,8-4h5l-1,2v1h0l-1,1h0l-1,1-1,0-1,0-1,1c-3.31,1.78-6.69,3.44-9.9,5.37C76.3,182.44,73,184.77,69.64,187l-4,2H58.71Z" style="fill: #839eb6"/>
      <path d="M80.67,174l-17,10c1.57-1.46,3-3,4.72-4.37,3.36-2.63,6.84-5.1,10.27-7.64h2v1Z" style="fill: #a2b6c8"/>
      <path d="M80.65,173v-1l5-3,2-1,5-2h1v1c-.34.33-.67.66-1,1l-2,1-8,4Z" style="fill: #a2b6c8"/>
      <path d="M87.65,168l-2,1c0-.34,0-.67,0-1Z" style="fill: #b0c1d0"/>
      <path d="M174.66,214l-5,4-1,1h0l-2,1h0l-2,1h0l-2,1h-2l1-2,7-4,6-2Z" style="fill: #91a8be"/>
      <path d="M179.65,211v1l-5,2h0Z" style="fill: #91a8be"/>
      <path d="M168.65,219l1-1c0,.34,0,.67,0,1Z" style="fill: #a2b6c8"/>
      <path d="M168.65,219h1v1h-1v-1Z" style="fill: #a2b6c8"/>
      <path d="M159.65,226l1,1c0,.33,0,.66,0,1l-2,1-2,1-4,2-2,1h0l-1,1h-1l-1,1h-1v-1q1.5-1.5,3-3Z" style="fill: #b6c6d4"/>
      <path d="M150.65,233l2-1Z" style="fill: #bac8d6"/>
      <path d="M147.65,235l1-1c0,.34,0,.67,0,1Z" style="fill: #bac8d6"/>
      <path d="M149.65,234l1-1Z" style="fill: #bac8d6"/>
      <path d="M146.65,235h1l-2,1h0Z" style="fill: #bac8d6"/>
      <path d="M144.65,237l-2,1h0l2-1Z" style="fill: #bac8d6"/>
      <path d="M145.66,236l-1,1h0l1-1Z" style="fill: #bac8d6"/>
      <path d="M159.65,226l-10,5h0c0-.34,0-.67,0-1h0l1-1h0l2-1,3-2c.67-.33,1.34-.66,2-1l2-1h2Z" style="fill: #a2b6c8"/>
      <path d="M168.66,220l-5,3h0v-1l1-1h0l2-1h2Z" style="fill: #a2b6c8"/>
      <path d="M163.65,223l-2,1h0v-1h2Z" style="fill: #a2b6c8"/>
      <path d="M125.66,243h-2l6-4,1-1h1l1-1h1v2Z" style="fill: #91a8be"/>
      <path d="M133.65,239v-2h0l2-1h1l3-2h2l0,1h0l-4,3h0l-2,1Z" style="fill: #a0b4c7"/>
      <path d="M137.65,239v1h-2v-1h2Z" style="fill: #abbdcd"/>
      <path d="M134.65,241h-1l1-1Z" style="fill: #aabccd"/>
      <path d="M134.65,241v-1h1Z" style="fill: #abbdcd"/>
      <path d="M132.65,242h-1l1-1Z" style="fill: #aabccd"/>
      <path d="M132.65,242v-1h1Z" style="fill: #abbdcd"/>
      <path d="M131.65,242l-1,1Z" style="fill: #abbdcd"/>
      <path d="M129.66,243l-1,1Z" style="fill: #abbdcd"/>
      <path d="M137.65,238l4-3-1,3h-3Z" style="fill: #a7bacb"/>
      <path d="M137.65,238h1l-1,1h0v-1Z" style="fill: #abbdcd"/>
      <path d="M140.65,238l1-3h0l3-1h2v1l-1,1-1,1-2,1Z" style="fill: #b6c5d4"/>
      <path d="M159.64,129l-1,2-7,4h-2v-1l2-2Z" style="fill: #9bb0c4"/>
      <path d="M139.65,140l6-4v1l-2,2-4,1Z" style="fill: #a0b5c7"/>
      <path d="M145.65,137v-1l4-2v1l-2,2Z" style="fill: #a0b4c7"/>
      <path d="M179.65,211l-5,3-6,2v0l6-5,2-1,2-1h2Z" style="fill: #8ba4bb"/>
      <path d="M196.65,200l-12,6c0-.33,0-.66,0-1l3-2,5-3,4-1h0C196.65,199.34,196.65,199.67,196.65,200Z" style="fill: #859fb7"/>
      <path d="M184.66,205c0,.33,0,.66,0,1l-4,3h-2v-1h0l1-1,4-2Z" style="fill: #7d99b3"/>
      <path d="M196.65,200c0-.33,0-.66,0-1l4-1c-.34.66-.67,1.33-1,2Z" style="fill: #8ca5bc"/>
      <path d="M220.65,187l-1,1-2,1a81.73,81.73,0,0,0-7.92,2.65c-2.78,1.24-5.38,2.91-8.06,4.39l-1-1v-2l12-8,10-4,1,3v1Z" style="fill: #7794af"/>
      <path d="M200.65,195l1,1c-.34.66-.68,1.32-1,2l-4,1h0l3-4Z" style="fill: #859fb7"/>
      <path d="M242.66,174v1l-9,6-1,1-5,1.93-2-1Z" style="fill: #8ba4bb"/>
      <path d="M233.68,181l9-6h1c0,.33,0,.66,0,1h0l-1,1h0l-2,1c-.66.34-1.32.68-2,1h0l-1,1-1,0Z" style="fill: #9eb3c6"/>
      <path d="M233.68,181l3-1-4,2Z" style="fill: #a5b8ca"/>
      <path d="M225.65,183l2,1-1,0-1,0,0,0C225.64,183.65,225.65,183.33,225.65,183Z" style="fill: #8ea7bd"/>
      <path d="M237.65,180l1-1Z" style="fill: #a5b8ca"/>
      <path d="M225.65,184l1,0-1,1h0Z" style="fill: #94abc0"/>
      <path d="M242.65,177l1-1Z" style="fill: #a5b8ca"/>
      <path d="M225.65,184v1h-2c0-.34,0-.68,0-1h2Z" style="fill: #8ea7bd"/>
      <path d="M254.65,166h-1v-2l-1-7c0-1,0-2,0-3l3,3Z" style="fill: #9fb3c6"/>
      <path d="M208.65,131h5l.06,1,4.94,3.93,2,1.05,2,1h0l1,1h1v1c.33,1,.67,2,1,3l-5-1-20-11v-2Z" style="fill: #6d8daa"/>
      <path d="M225.65,143c-.33-1-.67-2-1-3h1l8,4,11,7,3,4a39,39,0,0,1,1.31,4.66c.46,2.86.38,5.58-3.31,6.34,3.73-5.94,2-10.86-5-14Z" style="fill: #7391ad"/>
      <path d="M220.65,137l-2-1.05c3.49-1.63,5.48.17,7,3.05h-2l-1-1h0Z" style="fill: #86a0b8"/>
      <path d="M213.64,131l-3-3,6,3-1,1-2-1Z" style="fill: #97adc2"/>
      <path d="M213.64,131l2,1-2,0Z" style="fill: #8ca4bb"/>
      <path d="M224.65,139h1v1h-1Z" style="fill: #809bb4"/>
      <path d="M247.65,155l-3-4,8,6c.33,2.33.65,4.67,1,7l-8,8a36.55,36.55,0,0,1,2.88-5.35C251.64,162.56,251.46,159,247.65,155Z" style="fill: #849fb7"/>
      <path d="M247.65,155c3.81,3.95,4,7.56.89,11.66a36.55,36.55,0,0,0-2.88,5.35l-3,2-17,9c0,.33,0,.65,0,1h-2l-1-3q5-3,10-6l13-9c3.68-.76,3.76-3.48,3.3-6.34A39,39,0,0,0,247.65,155Z" style="fill: #7996b1"/>
      <path d="M208.65,131l-8-2c-10-6.43-29.24-2.76-36,4l-4,2-4,1v-3l1,0,1-1h0l3-1,16-6c2.94-.34,6-1.29,8.8-.87,6.12.91,12.14,2.54,18.2,3.87Z" style="fill: #7895b0"/>
      <path d="M204.65,128c-6.06-1.33-12.08-3-18.2-3.87-2.83-.42-5.86.53-8.8.87v-1l1-1c8.17.18,16.57-1.23,24.06,3.55C203.39,127,204,127.51,204.65,128Z" style="fill: #7f9bb4"/>
      <path d="M180.65,121h12v1h-12Z" style="fill: #8fa7bd"/>
      <path d="M192.65,122v-1h3v1Z" style="fill: #96acc1"/>
      <path d="M195.65,122v-1h1Z" style="fill: #97adc2"/>
      <path d="M177.65,124v1l-16,6Z" style="fill: #829db5"/>
      <path d="M157.65,133l-1,0-4,2h-1l7-4v1h0Z" style="fill: #8ea6bc"/>
      <path d="M65.64,240c3.61,1.74,7.14,3.66,10.83,5.17,3,1.2,6.11,1.89,9.18,2.81l17,0,3,1h2c-4.51,4.41-10.52,3.83-15.44,2.7C83.92,249.78,76,246.15,68,243,67,242.63,66.43,241.05,65.64,240Z" style="fill: #859fb7"/>
      <path d="M121.64,243l-8,4h-3l1-1,10-4Q121.66,242.49,121.64,243Z" style="fill: #7f9ab4"/>
      <path d="M121.64,243q0-.49,0-1l8-4,0,0c0,.33,0,.66,0,1l-6,4Z" style="fill: #86a0b8"/>
      <path d="M110.65,247h3l-5,2c0-.65,0-1.31,0-2h1l1,0Z" style="fill: #859fb7"/>
      <path d="M108.66,247v2h-1v-1Z" style="fill: #7f9ab4"/>
      <path d="M76.65,242q-13-7-26-14l-4-3-1-1-4-2-1-1-2-1-3-4,1-1v-4l-1-1,11-8h3c-1,.83-2.07,1.58-3,2.5-2.69,2.78-7.33,5.58-7.4,8.46s4.63,5.64,7.24,8.46a1.55,1.55,0,0,0,.44.24c9.34,5.41,18.69,10.79,28,16.22,12.35,7.17,24.87,9.64,38.07,2,3-1.72,6.38-2.62,9.59-3.9l-11,7c-5.78,1-11.59,2.92-17.33,2.75C88.4,245.56,82.53,243.34,76.65,242Z" style="fill: #6384a3"/>
      <path d="M76.65,242c5.88,1.34,11.75,3.56,17.67,3.75,5.74.17,11.55-1.75,17.33-2.75v3l-1,1h0l-1,0h-1l-1,1h-5l-17,0Z" style="fill: #698aa7"/>
      <path d="M46.65,225l4,3h-2l-10-6v-2l2,1,1,1,4,2Z" style="fill: #7291ad"/>
      <path d="M38.65,222l10,6-1,1-11-6Z" style="fill: #819cb5"/>
      <path d="M38.65,222l-2,1h-1l-2-2a5.23,5.23,0,0,0-.2-2c-2.95-5.25-2.31-9.82,2.33-13.81.53-.45.57-1.49.83-2.25l15-8.93,3,0,1,1-9,7-11,8v6l3,4Z" style="fill: #7a96b1"/>
      <path d="M36.62,203c-.26.76-.3,1.8-.83,2.25-4.64,4-5.28,8.56-2.33,13.81a5.23,5.23,0,0,1,.2,2c-7.62-6-7.1-10.68,2-18.05A7.69,7.69,0,0,0,36.62,203Z" style="fill: #859fb7"/>
      <path d="M54.65,194l-3,0,7.05-5h3.94Z" style="fill: #7e9ab3"/>
      <path d="M101.65,164l6-4h2l-7,6-3,1h-1l1-2h0C100.31,164.66,101,164.33,101.65,164Z" style="fill: #88a2ba"/>
      <path d="M101.65,164c-.67.33-1.34.66-2,1v-1Z" style="fill: #8ea7bd"/>
      <path d="M99.65,165c-.34.66-.67,1.33-1,2l-2,0h-1Z" style="fill: #8ea7bd"/>
      <path d="M95.65,167h1l-1,2h-2v-1l1-1Z" style="fill: #8da5bc"/>
      <path d="M94.65,167l-1,1h-1c.33-.34.66-.67,1-1Z" style="fill: #95acc1"/>
      <path d="M109.64,160h-2l2-1,0,0C109.65,159.34,109.65,159.66,109.64,160Z" style="fill: #94abc0"/>
      <path d="M109.64,160c0-.33,0-.65,0-1l3-1,5-3h0l2-1h5v1c-2.73,1.73-5.56,3.31-8.16,5.21-2.41,1.75-4.58,3.84-6.85,5.78l-8,2c.33-.67.67-1.33,1-2Z" style="fill: #7794af"/>
      <path d="M128.65,150l5-4h0l5-3h2v1l-8,5-4,1Z" style="fill: #859fb7"/>
      <path d="M124.65,152c1.33-.67,2.66-1.34,4-2h0l-2,3h-1Z" style="fill: #859fb7"/>
      <path d="M124.65,152l1,1-1,1h-2v-1h0l1-1Z" style="fill: #839eb6"/>
      <path d="M122.65,153v1h-1Z" style="fill: #839eb6"/>
      <path d="M123.65,152l-1,1Z" style="fill: #839eb6"/>
      <path d="M117.65,155l-5,3v-1h0l1-1Z" style="fill: #8ca5bc"/>
      <path d="M119.65,154l-2,1Z" style="fill: #8ca5bc"/>
      <path d="M113.66,156l-1,1v-1Z" style="fill: #94abc0"/>
      <path d="M138.65,143l-5,3,1-3,2-1,1-1,2-1,4-1v1Z" style="fill: #91a8be"/>
      <path d="M101.65,168l8-2,0,0c-.59.93-1,2.21-1.8,2.71-5.4,3.22-11,6.18-16.34,9.39S80.93,184.69,75.65,188c-3.34,1.8-6.67,3.61-10,5.4l-16,8.6h-3l9-7,10-6,4-2c7.27-3.67,14.54-7.32,21.76-11.07.33-.17.18-1.25.26-1.91l1,0,1-1h0l1-1h0l2-1h0l2-1Z" style="fill: #6586a4"/>
      <path d="M91.66,174c-.08.66.07,1.74-.26,1.91-7.22,3.75-14.49,7.4-21.76,11.07,3.37-2.23,6.66-4.56,10.11-6.64,3.21-1.93,6.59-3.59,9.9-5.37l1-1Z" style="fill: #698aa7"/>
      <path d="M65.65,189l-10,6-1-1,8-5Z" style="fill: #7794af"/>
      <path d="M94.65,171l1-2h1v2h-2Z" style="fill: #7c98b2"/>
      <path d="M90.65,169l2-1h0v1Z" style="fill: #95acc1"/>
      <path d="M94.65,171h2l-2,1Z" style="fill: #7391ad"/>
      <path d="M80.65,173h2l-2,1C80.67,173.7,80.66,173.35,80.65,173Z" style="fill: #a0b4c7"/>
      <path d="M93.65,173l-1,1Z" style="fill: #7391ad"/>
      <path d="M94.65,172l-1,1Z" style="fill: #7391ad"/>
      <path d="M90.66,174l-1,1Z" style="fill: #7694af"/>
      <path d="M92.65,169v-1h1v1Z" style="fill: #93aabf"/>
      <path d="M161.66,220l-1,2h0l-5,3h0l-6,2,7-5,5-2Z" style="fill: #8ba4bb"/>
      <path d="M168.66,216l-7,4v0l7-4Z" style="fill: #8ba4bb"/>
      <path d="M168.65,220h-2l2-1C168.65,219.33,168.65,219.66,168.65,220Z" style="fill: #a0b5c7"/>
      <path d="M166.65,220l-2,1Z" style="fill: #a0b5c7"/>
      <path d="M164.65,221l-1,1h-1Z" style="fill: #a0b4c7"/>
      <path d="M162.65,223h-2v-1h2Z" style="fill: #a0b4c7"/>
      <path d="M146.65,234h-2l1-2h0l2-1h2Q148.15,232.5,146.65,234Z" style="fill: #a2b6c8"/>
      <path d="M149.65,227l6-2v1l-3,2-2,1h0l-1,1h0l-2,1h0l-2,1h-2v-1l6-4Z" style="fill: #91a8be"/>
      <path d="M159.65,224l-2,1h0l2-1Z" style="fill: #a0b4c7"/>
      <path d="M155.65,226v-1h2C157,225.34,156.32,225.67,155.65,226Z" style="fill: #a0b4c7"/>
      <path d="M150.65,229l2-1Z" style="fill: #a2b6c8"/>
      <path d="M147.65,231l2-1c0,.34,0,.67,0,1Z" style="fill: #a0b5c7"/>
      <path d="M149.65,230l1-1Z" style="fill: #a2b6c8"/>
      <path d="M160.65,223h1v1h-1Z" style="fill: #a0b5c7"/>
      <path d="M160.65,223v1h-1c.33-.34.67-.67,1-1Z" style="fill: #a0b4c7"/>
      <path d="M162.65,223v-1h1v1h-1Z" style="fill: #a0b5c7"/>
      <path d="M131.65,238h-2l0,0,1-2,2-1,2,0c0,.34,0,.68,0,1l-1,1h-1Z" style="fill: #86a0b8"/>
      <path d="M131.65,238l1-1Z" style="fill: #8ea6bc"/>
      <path d="M129.66,238h1l-1,1C129.65,238.67,129.66,238.34,129.66,238Z" style="fill: #8ea6bc"/>
      <path d="M143.65,231v2l-2,1h-2l3-3h1Z" style="fill: #8fa7bd"/>
      <path d="M143.65,233v-1h2l-1,2-3,1c0-.34,0-.68,0-1Z" style="fill: #a0b5c7"/>
      <path d="M139.65,234l-3,2v-1l3-1Z" style="fill: #8fa7bd"/>
      <path d="M137.65,238v1h-2Z" style="fill: #a7bacb"/>
      <path d="M133.66,237l1-1h1Z" style="fill: #8ea6bc"/>
      <path d="M136.65,235v1h-1Z" style="fill: #8ea6bc"/>
      <path d="M147.65,137l2-2h1v1l-3,1Z" style="fill: #8fa7bd"/>
      <path d="M150.65,136v-1h1Z" style="fill: #8ea6bc"/>
      <path d="M143.65,140v-1l2-2h2l-3,3h-1Z" style="fill: #8fa7bd"/>
      <path d="M168.65,216l-7,4-5,2c-.33-1-.67-2-1-3l20-11v1l-1,1v1Z" style="fill: #7391ad"/>
      <path d="M174.66,211v-1h2Z" style="fill: #7b98b2"/>
      <path d="M178.65,209l-2,1h0v-1h2Z" style="fill: #7b98b2"/>
      <path d="M199.65,195l-3,4-4,1h0l1-2c.34-.33.68-.66,1-1l4-2h1Z" style="fill: #7a97b1"/>
      <path d="M192.65,200l-5,3h0l1-2h0l4-1Z" style="fill: #7a97b1"/>
      <path d="M184.66,205h-1l4-2h0Z" style="fill: #7c98b2"/>
      <path d="M187.65,203l-4,2-4,2-1,1h0l-2,1h-1v-1l8-5,5-2Z" style="fill: #7391ad"/>
      <path d="M176.65,209l2-1v1Z" style="fill: #7a97b1"/>
      <path d="M178.65,208l1-1Z" style="fill: #7a97b1"/>
      <path d="M188.65,201l-5,2c-1.3,0-2.87-.49-3.86.06-5.13,2.84-10.11,5.94-15.14,8.95v-1l7-6,20-12,18-10,3,1v1l-12,8-1,1h-1l-4,3c-.33.34-.67.67-1,1l-5,3Z" style="fill: #6284a3"/>
      <path d="M212.66,185v-1l20-11v2q-5,3-10,6Z" style="fill: #6586a5"/>
      <path d="M198.65,194h2v1h-2Z" style="fill: #7290ac"/>
      <path d="M200.65,194h-1l1-1Z" style="fill: #6d8da9"/>
      <path d="M200.65,131l20,11c1.08.71,2.18,1.38,3.23,2.13q5.4,3.92,10.77,7.87h0c-1.57-.46-3.31-.64-4.67-1.45-6.54-3.92-12.95-8.07-19.47-12-14.65-8.9-29.5-13-44.86-1.52h0v-3C176.88,127.9,188.42,125.42,200.65,131Z" style="fill: #5f81a1"/>
      <path d="M200.65,131c-12.23-5.57-23.77-3.09-35,3l-1-1c6.76-6.75,26-10.42,36-4Z" style="fill: #6a8aa8"/>
      <path d="M234.65,152q-5.39-3.94-10.77-7.87c-1-.75-2.15-1.42-3.23-2.13l5,1,15,9c.33,1,.67,2,1,3Z" style="fill: #6586a5"/>
      <path d="M220.65,137l2,1Z" style="fill: #809bb4"/>
      <path d="M222.65,138l1,1Z" style="fill: #809bb4"/>
      <path d="M241.65,155c-.33-1-.67-2-1-3,7,3.14,8.73,8.06,5,14l-13,9v-2c2.84-1.92,5.7-3.82,8.53-5.75C246.52,163.61,246.68,159.34,241.65,155Z" style="fill: #6a8aa8"/>
      <path d="M164.65,133l1,1v3c-1.9.45-4,.53-5.66,1.42-5.08,2.73-9.93,5.91-15,8.66-4,2.17-8.22,4-12.34,5.94v-1l13-8,15-9Z" style="fill: #6586a5"/>
      <path d="M160.65,135l-15,9,1-3c0-.33,0-.66,0-1l2-1,2-1h0l6-2Z" style="fill: #6c8ca9"/>
      <path d="M156.65,136l-6,2,2-2,4-1Z" style="fill: #7b97b1"/>
      <path d="M156.65,135l-4,1v-1l4-2C156.66,133.67,156.65,134.33,156.65,135Z" style="fill: #85a0b8"/>
      <path d="M157.65,133l1-1Z" style="fill: #85a0b8"/>
      <path d="M152.65,135v1l-2,2h0l-2,1-2,1h-2l3-3,3-1,1-1Z" style="fill: #8ba4bb"/>
      <path d="M102.64,248h3v1Z" style="fill: #7794af"/>
      <path d="M105.65,249v-1h2v1Z" style="fill: #7e9ab4"/>
      <path d="M130.66,236l-1,2-8,4-10,4v-3l11-7,4-2,6-3h2l1,3-1,1-2,0Z" style="fill: #6b8ba8"/>
      <path d="M109.65,247l1,0Z" style="fill: #7f9ab4"/>
      <path d="M126.65,234l-4,2c-3.21,1.28-6.63,2.18-9.59,3.9-13.2,7.62-25.72,5.15-38.07-2-9.34-5.43-18.69-10.81-28-16.22a1.55,1.55,0,0,1-.44-.24c-2.61-2.82-7.31-5.7-7.24-8.46s4.71-5.68,7.4-8.46c.9-.92,2-1.67,3-2.5l16-8.6c3.34-1.79,6.67-3.6,10-5.4h3l-1,2-20,11-7,4a2.68,2.68,0,0,0-.49,0c-4.73.73-8.28,3.92-8.88,8-.29,2,4.1,4.65,6.37,7l23,13c3.49,2.07,6.87,4.36,10.49,6.18,12.67,6.39,26.53,4.41,37.51-5.18l5-3,7-3h2Z" style="fill: #597d9e"/>
      <path d="M35.66,215v-4h1v4Z" style="fill: #6989a7"/>
      <path d="M35.66,215h1l-1,1Z" style="fill: #6989a7"/>
      <path d="M46.65,225l-1-1C46,224.33,46.32,224.66,46.65,225Z" style="fill: #6a8aa8"/>
      <path d="M41.65,222l-1-1Z" style="fill: #6a8aa8"/>
      <path d="M36.65,211h-1v-1Z" style="fill: #698aa7"/>
      <path d="M96.65,170v-1l3-2,3-1c-.33.67-.67,1.33-1,2l-3,2Z" style="fill: #7a97b1"/>
      <path d="M99.65,167l-3,2h-1l1-2,2,0Z" style="fill: #839eb6"/>
      <path d="M132.65,152v1l-23,13,0,0c2.27-1.94,4.44-4,6.85-5.78,2.6-1.9,5.43-3.48,8.16-5.21l3-1,3-2h2Z" style="fill: #6788a6"/>
      <path d="M127.65,154l-3,1v-1l1-1h2Z" style="fill: #7290ac"/>
      <path d="M132.65,152h-2l2-3,8-5,6-3-1,3Z" style="fill: #7391ad"/>
      <path d="M132.65,149l-2,3h0l-3,1h-1l2-3Z" style="fill: #7a97b1"/>
      <path d="M146.65,141l-6,3v-1l4-3h2C146.66,140.34,146.65,140.67,146.65,141Z" style="fill: #7d99b3"/>
      <path d="M144.65,140l-4,3h-2l5-3Z" style="fill: #8ba4bb"/>
      <path d="M109.66,166l23-13c4.12-2,8.33-3.77,12.34-5.94,5.07-2.75,9.92-5.93,15-8.66,1.66-.89,3.76-1,5.66-1.42h0v1l-3,2a32.72,32.72,0,0,0-4.58,1.85q-20.73,12.21-41.4,24.54c-5.35,3.18-10.68,6.4-16,9.61l-22,12h-3c5.28-3.31,10.51-6.7,15.87-9.89s10.94-6.17,16.34-9.39C108.7,168.22,109.07,166.94,109.66,166Z" style="fill: #5b7e9f"/>
      <path d="M96.65,170h2l-2,1Z" style="fill: #7391ad"/>
      <path d="M135.64,234l-1-3,21-12c.33,1,.67,2,1,3l-7,5h0l-7,4h0Z" style="fill: #7391ad"/>
      <path d="M160.65,223c-.33.33-.67.66-1,1l-2,1h-2l5-3Z" style="fill: #91a8be"/>
      <path d="M145.65,232l2-1Z" style="fill: #a0b5c7"/>
      <path d="M142.65,231l7-4-6,4Z" style="fill: #8ba4bb"/>
      <path d="M135.64,234l7-3-3,3-3,1-1,1h-1c0-.34,0-.68,0-1C135,234.65,135.31,234.31,135.64,234Z" style="fill: #8ba4bb"/>
      <path d="M130.66,236l2-1Z" style="fill: #7b97b2"/>
      <path d="M143.65,233l-2,1Z" style="fill: #a0b4c7"/>
      <path d="M155.65,219l-21,12h-2l32-19c5-3,10-6.11,15.14-8.95,1-.55,2.56-.07,3.86-.06l-8,5Z" style="fill: #6586a5"/>
      <path d="M175.65,209h1v1h-2Z" style="fill: #7a97b1"/>
      <path d="M188.65,201l5-3-1,2Z" style="fill: #7391ad"/>
      <path d="M198.65,194v1l-4,2Z" style="fill: #6d8da9"/>
      <path d="M162.65,140l3-2a30.38,30.38,0,0,0,5.08-1.49c7.46-3.6,15.34-7,23.29-3.07,13.82,6.91,27.32,14.52,40.65,22.36,6,3.52,5.63,4.17,1.19,9.56a11.17,11.17,0,0,0-1.21,2.64l-25,15-18,10-4-1c.17-.28.27-.69.52-.83,7.81-4.45,15.69-8.78,23.43-13.34,3.49-2.05,6.71-4.54,10.05-6.83l6-3c1.83-1.07,3.64-2.19,5.5-3.2,3.74-2,4.45-4.76.79-7.09-6.59-4.18-13.51-7.84-20.29-11.71-3.2-1.9-6.29-4.06-9.64-5.65-3.66-1.72-7.56-2.92-11.36-4.35-2.82-.44-5.84-1.77-8.41-1.15-6.64,1.59-13.07,4-19.59,6.15Z" style="fill: #517799"/>
      <path d="M209.65,183l25-15c9.43-4.49,8.67-10.14,1.89-13.77-.8-.43-1.27-1.47-1.89-2.23h0l7,3c5,4.34,4.87,8.61-.47,12.25-2.83,1.93-5.69,3.83-8.53,5.75l-20,11Z" style="fill: #5e81a1"/>
      <path d="M187.65,192l4,1-20,12-15,7c-.33-.67-.67-1.33-1-2v-1a16.14,16.14,0,0,0,13-8l12-6Z" style="fill: #53789a"/>
      <path d="M164.65,212l-32,19-6,3,6-6,19-11,13-6Z" style="fill: #6284a3"/>
      <path d="M164.65,211l-13,6,1-2,4-3,15-7Z" style="fill: #597d9e"/>
      <path d="M234.65,152c.62.76,1.09,1.8,1.89,2.23,6.78,3.63,7.54,9.28-1.89,13.77a11.17,11.17,0,0,1,1.21-2.64c4.44-5.39,4.79-6-1.19-9.56C221.34,148,207.84,140.35,194,133.44c-8-4-15.83-.53-23.29,3.07a30.38,30.38,0,0,1-5.08,1.49v-1c15.36-11.49,30.21-7.38,44.86,1.52,6.52,4,12.93,8.11,19.47,12C231.34,151.36,233.08,151.54,234.65,152Z" style="fill: #567b9c"/>
      <path d="M148.64,139l2-1Z" style="fill: #7b97b1"/>
      <path d="M50.65,205l7-4,3,1c-3.25,2-6.49,3.94-9.74,5.89-5.78,3.46-5.76,6.81.07,10.26,5.42,3.2,10.71,6.65,16.28,9.56,7,3.66,14.25,6.88,21.39,10.29,3.06.28,6.11.8,9.17.79,9.78,0,16.46-7.39,24.83-10.79l1,3-5,3c-2.46.9-5.1,1.47-7.34,2.75-9.67,5.52-19.37,5.62-29.34.91-3.68-1.74-7.54-3.12-11.32-4.66l-23-13c-.1-.48,0-1.09-.32-1.42-5.2-6.39-5.12-6.94,1.69-11.8A11.57,11.57,0,0,0,50.65,205Z" style="fill: #517699"/>
      <path d="M123.65,231l-1-3,14-8c5.76-.35,9.9-3.33,13-8l6-2c.33.67.67,1.33,1,2l-4,3-22,13Z" style="fill: #53789a"/>
      <path d="M70.65,233c3.78,1.54,7.64,2.92,11.32,4.66,10,4.71,19.67,4.61,29.34-.91,2.24-1.28,4.88-1.85,7.34-2.75-11,9.59-24.84,11.57-37.51,5.18C77.52,237.36,74.14,235.07,70.65,233Z" style="fill: #567a9c"/>
      <path d="M78.65,188l22-12h3l-24,14h-2Z" style="fill: #53789a"/>
      <path d="M77.65,190h2l-8,6-11,6-3-1Z" style="fill: #52779a"/>
      <path d="M130.65,228l22-13-1,2-19,11Z" style="fill: #587c9d"/>
      <path d="M50.65,205A11.57,11.57,0,0,1,49,206.78c-6.81,4.86-6.89,5.41-1.69,11.8.27.33.22.94.32,1.42-2.27-2.35-6.66-5-6.37-7,.6-4.07,4.15-7.26,8.88-8A2.68,2.68,0,0,1,50.65,205Z" style="fill: #577c9d"/>
      <path d="M127.65,153l3-1-3,2Z" style="fill: #6d8da9"/>
      <path d="M103.65,176h-3c5.34-3.21,10.67-6.43,16-9.61q20.69-12.3,41.4-24.54a32.72,32.72,0,0,1,4.58-1.85l2,1c-2.65,1.66-5.28,3.37-8,5q-16,9.54-32,19c-1.5.66-3,1.24-4.48,2C114.65,170,109.15,173,103.65,176Z" style="fill: #53789a"/>
      <path d="M136.65,220l-14,8c-8.37,3.4-15.05,10.74-24.83,10.79-3.06,0-6.11-.51-9.17-.79a8.73,8.73,0,0,0-1.7-1.73C75.85,230,64.63,224,53.64,217.5c-5.71-3.36-5.55-5.54.19-9.21C60.38,204.1,67,200.09,73.65,196c1.63-.77,3.29-1.46,4.87-2.31,4.73-2.53,9.42-5.12,14.13-7.69l-8,6a52,52,0,0,1-4.21,3.39c-4.12,2.7-8,6.61-12.56,7.58-6.48,1.4-8.52,7-13.56,9.78,1.14,1.34,1.64,2.3,2.43,2.79,10.5,6.54,21,13.08,31.62,19.42,1.22.72,3.13.34,4.71.37a26.37,26.37,0,0,0,5.9-.13,51.42,51.42,0,0,0,8.86-2.68c3.53-1.46,6.91-3.28,10.3-5.05a31.27,31.27,0,0,0,3.51-2.47l17-9c3.17-2.09,6.31-4.23,9.51-6.27,4.14-2.62,8.33-5.16,12.49-7.73a24.71,24.71,0,0,0,4-1.48q19-10.71,38-21.52l3-3c6.72-3.58,13.42-7.22,20.2-10.69a23.41,23.41,0,0,1,4.8-1.31l-3,4-6,3a12.19,12.19,0,0,0-3.33.76c-8.66,4.9-17.33,9.78-25.85,14.92-4.11,2.49-7.89,5.53-11.82,8.32l-12,6-13,8v1l-6,2Z" style="fill: #4d7397"/>
      <path d="M230.65,164a23.41,23.41,0,0,0-4.8,1.31c-6.78,3.47-13.48,7.11-20.2,10.69,6.2-3.78,12.5-7.41,18.57-11.39,4.62-3,4.42-5.23-.24-7.93-8.3-4.82-16.48-9.88-25-14.36-4.78-2.52-9.63-5.36-15.37-5.32v-1h9c3.8,1.43,7.7,2.63,11.36,4.35,3.35,1.59,6.44,3.75,9.64,5.65a46.26,46.26,0,0,0,4.49,3.71c4,2.59,8.17,5,12.26,7.5C233.88,159.34,234.13,161.6,230.65,164Z" style="fill: #4d7396"/>
      <path d="M192.65,136h-9c-7.51,3.34-15.23,6.29-22.49,10.12-12,6.33-23.69,13.22-35.51,19.88l-1-1q16-9.51,32-19c2.69-1.61,5.32-3.32,8-5,6.52-2.11,12.95-4.56,19.59-6.15C186.81,134.23,189.83,135.56,192.65,136Z" style="fill: #4f7598"/>
      <path d="M180.65,195c3.93-2.79,7.71-5.83,11.82-8.32,8.52-5.14,17.19-10,25.85-14.92a12.19,12.19,0,0,1,3.33-.76c-3.34,2.29-6.56,4.78-10.05,6.83-7.74,4.56-15.62,8.89-23.43,13.34-.25.14-.35.55-.52.83Z" style="fill: #507698"/>
      <path d="M230.65,164c3.48-2.4,3.23-4.66-.25-6.79-4.09-2.5-8.23-4.91-12.26-7.5a46.26,46.26,0,0,1-4.49-3.71c6.78,3.87,13.7,7.53,20.29,11.71,3.66,2.33,2.95,5.07-.79,7.09-1.86,1-3.67,2.13-5.5,3.2Z" style="fill: #4f7598"/>
      <path d="M155.65,209l13-8A16.14,16.14,0,0,1,155.65,209Z" style="fill: #4f7598"/>
      <path d="M73.65,196c-6.61,4.09-13.27,8.1-19.82,12.29-5.74,3.67-5.9,5.85-.19,9.21C64.63,224,75.85,230,87,236.27a8.73,8.73,0,0,1,1.7,1.73c-7.14-3.41-14.38-6.63-21.39-10.29-5.57-2.91-10.86-6.36-16.28-9.56-5.83-3.45-5.85-6.8-.07-10.26,3.25-1.95,6.49-3.93,9.74-5.89l11-6Z" style="fill: #4f7598"/>
      <path d="M136.65,220l13-8C146.55,216.67,142.41,219.65,136.65,220Z" style="fill: #4f7598"/>
      <path d="M73.65,196h-2l8-6,24-14c5.5-3,11-6,16.52-9,1.44-.77,3-1.35,4.48-2l1,1-33,20c-4.71,2.57-9.4,5.16-14.13,7.69C76.94,194.54,75.28,195.23,73.65,196Z" style="fill: #4f7598"/>
      <path d="M183.65,137c5.74,0,10.59,2.8,15.37,5.32,8.48,4.48,16.66,9.54,25,14.36,4.66,2.7,4.86,4.91.24,7.93-6.07,4-12.37,7.61-18.57,11.39l-3,3c-3.17,1.25-6.54,2.15-9.47,3.83-10.92,6.25-21.7,12.76-32.53,19.17-4.16,2.57-8.35,5.11-12.49,7.73-3.2,2-6.34,4.18-9.51,6.27l-17,9a31.27,31.27,0,0,1-3.51,2.47c-3.39,1.77-6.77,3.59-10.3,5.05A51.42,51.42,0,0,1,99,235.2a26.37,26.37,0,0,1-5.9.13c-1.58,0-3.49.35-4.71-.37-10.62-6.34-21.12-12.88-31.62-19.42-.79-.49-1.29-1.45-2.43-2.79,5-2.76,7.08-8.38,13.56-9.78,4.53-1,8.44-4.88,12.56-7.58A52,52,0,0,0,84.65,192c1.46-.23,3.12-.09,4.34-.76,7-3.85,13.82-7.89,20.7-11.88q8.61-5,17.2-10c11.89-6.9,23.77-13.83,35.69-20.69,5.83-3.36,11.92-6.31,17.48-10.06C181.3,137.79,184.67,141.7,183.65,137ZM56.88,213.6c10.45,6,19.49,11.08,28.48,16.29,7.29,4.22,14.48,4.13,21.74-.09,10.34-6,20.75-11.87,31.1-17.85q27-15.54,53.88-31.14c9.35-5.4,18.78-10.64,28.06-16.14,4.46-2.64,4.49-4.9.14-7.51-8.12-4.85-16.31-9.61-24.64-14.1-6-3.24-12.16-3.56-18.39.07-10.32,6-20.82,11.75-31.19,17.7q-39.28,22.57-78.5,45.28C64.26,208,61.28,210.49,56.88,213.6Z" style="fill: #4c7396"/>
      <path d="M183.65,137c1,4.7-2.35.79-3.59,1.62-5.56,3.75-11.65,6.7-17.48,10.06-11.92,6.86-23.8,13.79-35.69,20.69q-8.6,5-17.2,10c-6.88,4-13.74,8-20.7,11.88-1.22.67-2.88.53-4.34.76l8-6,33-20c11.82-6.66,23.52-13.55,35.51-19.88,7.26-3.83,15-6.78,22.49-10.12Z" style="fill: #4d7396"/>
      <path d="M160.65,202c10.83-6.41,21.61-12.92,32.53-19.17,2.93-1.68,6.3-2.58,9.47-3.83q-19,10.77-38,21.52A24.71,24.71,0,0,1,160.65,202Z" style="fill: #4d7396"/>
      <path d="M121.65,225l17-9Z" style="fill: #4d7396"/>
      <path d="M56.88,213.6c4.4-3.11,7.38-5.58,10.68-7.49q39.19-22.74,78.5-45.28c10.37-6,20.87-11.67,31.19-17.7,6.23-3.63,12.38-3.31,18.39-.07,8.33,4.49,16.52,9.25,24.64,14.1,4.35,2.61,4.32,4.87-.14,7.51-9.28,5.5-18.71,10.74-28.06,16.14q-27,15.54-53.88,31.14c-10.35,6-20.76,11.86-31.1,17.85-7.26,4.22-14.45,4.31-21.74.09C76.37,224.68,67.33,219.57,56.88,213.6Z" style="fill: #4b7295"/>
    </g>
  </g>
  <path d="M246.22,155.07c9.56-5.53,9.56-14.5,0-20L198,107.18c-9.56-5.53-25.07-5.53-34.63,0L24.84,187.3c-9.56,5.53-9.56,14.5,0,20L73,235.19c9.56,5.53,25.07,5.53,34.63,0Z" style="fill: #c3d4e4"/>
  <path d="M24.84,207.33,73,235.19c9.56,5.53,25.07,5.53,34.63,0l138.56-80.12c9.56-5.53,9.56-14.5,0-20" style="fill: #b3cadf"/>
  <g id="Body">
    <path d="M72.71,234.32a1.82,1.82,0,0,1-.63-.22c-1.35-.68-2.71-1.17-4-1.93-3.56-2-7.11-4.11-10.67-6.17L49,221.13l-9.06-5.24c-2.88-1.66-5.81-3.2-8.68-4.87-2.69-1.57-7-4-8-4.74-.33-.2-.58-.44-.93-.69A14.4,14.4,0,0,1,20.61,204c.4-.5.87-.3,1.22-.09,1.85,1.11,3.7,2.23,5.56,3.31l9.19,5.26q3.78,2.17,7.55,4.36l7.33,4.24c2.23,1.29,4.44,2.6,6.67,3.88,2.45,1.41,4.91,2.79,7.36,4.2s5,2.9,7.68,4.12a38.45,38.45,0,0,0,14.25,3,40.12,40.12,0,0,0,7.18-.47,36.18,36.18,0,0,0,7.34-1.83,41.85,41.85,0,0,0,6.84-3.31c3.06-1.75,6.14-3.48,9.19-5.24,2.84-1.64,5.65-3.33,8.49-5,3.49-2,7-4,10.48-6s6.8-4,10.22-6c4.06-2.35,8.15-4.65,12.21-7,3.49-2,6.95-4.06,10.44-6.08,2.87-1.67,5.76-3.3,8.64-5s5.65-3.33,8.49-5c3.48-2,7-4,10.48-6,3-1.75,6-3.52,9-5.26s5.84-3.34,8.75-5,5.65-3.33,8.49-5c3.06-1.77,6.14-3.48,9.2-5.25,3.34-1.93,6.68-3.86,10-5.87a43.54,43.54,0,0,0,5.23-3.58,12.67,12.67,0,0,0,4.19-6.07c.12-.42,0-1.06.74-1.16.16.75-.06,1.5.11,2.25-.59,0-.47.47-.7.93-1.56,3.18-4.31,5-7.24,6.81-2.26,1.4-4.69,3-7,4.29-2,1.18-4,2.37-6,3.53-3.05,1.76-6.13,3.49-9.19,5.25-2.44,1.41-4.78,2.68-7.22,4.1l-7.11,4.12c-2.41,1.4-4.88,2.74-7.29,4.13s-4.79,3.2-7.31,4.65c-2.88,1.66-5.94,3-8.82,4.65l-7.33,4.24-8.51,4.93c-2.51,1.46-5.15,3.09-7.67,4.55-2.23,1.29-4.13,2.73-6.36,4-2.52,1.45-5.11,2.54-7.62,4-2.81,1.62-5.65,3.4-8.45,5l-8.83,5.12c-2.45,1.41-4.94,2.82-7.39,4.22l-7.33,4.23c-3,1.74-6,3.34-9,5a34.6,34.6,0,0,1-7.63,3c-4.45,1.23-9,1.35-13.64,1.54a17.29,17.29,0,0,1-3-.11,39.8,39.8,0,0,1-7.39-1.7c-.59-.2-1.15-.47-1.75-.64A4.29,4.29,0,0,0,72.71,234.32Z" style="fill: #aec6de"/>
    <path d="M143.59,118.63l.62-.35c3.76-2.19,7.49-4.34,11.26-6.52,3.13-1.81,7.8-4.62,9.41-5.37a28.62,28.62,0,0,1,8.72-2.8,25.48,25.48,0,0,1,5.3-.53c.74,0,1.49,0,2.24,0a1.61,1.61,0,0,1,.65,0c.11.16.19.41.33.45a14,14,0,0,0,1.57.3,6,6,0,0,1,2.6.76v3a31,31,0,0,0-3.81-.47,27,27,0,0,0-6.09.21,49.7,49.7,0,0,0-5.21,1.13,33.65,33.65,0,0,0-5,2.31c-2,1-3.9,2.21-5.84,3.34-2.15,1.25-4.29,2.52-6.45,3.77-1.72,1-3.46,2-5.18,3-2,1.14-3.94,2.32-5.92,3.45-2.59,1.49-5.21,2.94-7.8,4.43-3.41,2-6.81,4-10.22,6l-8.3,4.8-8,4.6c-2.12,1.22-4.21,2.49-6.34,3.71a7.41,7.41,0,0,1-2.65,1.28c-.2-.35-.44-.61-1-.27v1.27c-.66.33-1.34.64-2,1-1.78,1-3.54,2-5.3,3-2,1.15-3.93,2.32-5.91,3.46-2.6,1.48-5.21,2.93-7.8,4.42-3.45,2-6.88,4-10.33,6q-4.08,2.38-8.18,4.75l-8,4.59c-1.87,1.08-3.74,2.15-5.61,3.24-2.18,1.27-4.37,2.55-6.55,3.84s-4.18,2.39-6.16,3.74a8.46,8.46,0,0,0-3.36,4.07c-.21.61-.38,1.24-.57,1.86a.91.91,0,0,0-1.32.18c-.49.55-1,1.07-1.56,1.6a1.51,1.51,0,0,1-.55.44,3.92,3.92,0,0,1-4.83-3.39c-.05-.53-.35-1.21-.44-1.74a15.65,15.65,0,0,1,1.67-1.69,29.59,29.59,0,0,1,4.93-3.25c2.45-1.48,5-2.88,7.45-4.31s4.91-2.78,7.35-4.19c4.49-2.61,9-5.24,13.45-7.84l9.16-5.29,11.53-6.67,9.16-5.29,8.51-4.93c2.44-1.42,4.88-2.82,7.33-4.23l8.53-4.93,7.21-4.18c2.88-1.65,5.75-3.32,8.62-5,2.37-1.37,4.74-2.73,7.1-4.11,3.12-1.81,6.24-3.63,9.37-5.43a4.39,4.39,0,0,1,.73-.41l.46-.26Z" style="fill: #f7f8f8"/>
    <path d="M187.34,103.39l3.26.74a29.71,29.71,0,0,1,8.25,3.33c3.48,2.05,7,4,10.5,6,2.84,1.65,5.65,3.32,8.48,5s5.76,3.3,8.64,5q6.14,3.56,12.26,7.13c1.53.9,3,1.85,4.56,2.78a5.8,5.8,0,0,0,1.19,1.5,6.06,6.06,0,0,1,2.06,2.42,5.3,5.3,0,0,1,.33,5.1c-1.15,2.19-4.19,5.15-6.58,5.91.12-.31,1.45-2.06,1.59-2.36,1.3-2.71.69-5.34-1.26-7.61s-4.39-3.25-6.73-4.65-5-2.91-7.54-4.36l-8.63-5-7.33-4.24-8.51-4.94c-2.51-1.45-5-2.86-7.54-4.36a24.77,24.77,0,0,0-8.05-3.18v-3a6,6,0,0,0-2.6-.76,14,14,0,0,1-1.57-.3c-.14,0-.38-.34-.49-.49,1.38,0,2.9.08,4.38.11a2.58,2.58,0,0,1,.39,0Z" style="fill: #f3f5f7"/>
    <path d="M240.76,148a16.5,16.5,0,0,0,6.11-5.67,5.3,5.3,0,0,0-.33-5.1,6.06,6.06,0,0,0-2.06-2.42,5.8,5.8,0,0,1-1.19-1.5l4.75,2.75c-.54.52,0,.92.17,1.33a6.49,6.49,0,0,1,.19,5.5,12.11,12.11,0,0,1-4.91,5.3c-2.63,1.66-5.34,3.2-8,4.77-2.29,1.34-4.6,2.64-6.91,4l-6,3.49-6.91,4-7.22,4.18-8.73,5-7.23,4.17c-2.91,1.69-5.81,3.38-8.73,5.06L176.47,187q-4.41,2.57-8.83,5.12-3.62,2.08-7.22,4.18c-2.65,1.54-5.29,3.12-7.95,4.66-3.05,1.76-6.13,3.49-9.19,5.25-2.84,1.64-5.65,3.32-8.49,5-3.06,1.76-6.14,3.48-9.2,5.25-2.84,1.64-5.65,3.33-8.49,5-3,1.77-6.15,3.46-9.19,5.26a39.94,39.94,0,0,1-9.71,4.41,40,40,0,0,1-8.2,1.24,36.6,36.6,0,0,1-8.43-.52,21.72,21.72,0,0,1-6-1.69c-2-1-4-1.92-5.9-3-2.16-1.16-4.26-2.41-6.38-3.64S59,221,56.76,219.69c-2.48-1.42-5-2.83-7.46-4.26s-4.88-2.84-7.32-4.25c-2.91-1.69-5.83-3.36-8.74-5-2.67-1.53-5.33-3.07-8-4.57s-5-3.06-6.5-5.8c-.12-.21-.59-.31-.82-.46a11.2,11.2,0,0,1,.65-1.81c.17.22.61.5.72.74a9.6,9.6,0,0,0,4.37,4.9c.73.39,1.47.75,2.19,1.15,1.67.93,3.33,1.88,5,2.82,3.33,1.88,6.65,3.75,10,5.65,2.45,1.4,4.88,2.83,7.32,4.24L57,218.12l7,4c2,1.16,4,2.36,6,3.47a31.62,31.62,0,0,0,6.86,3.23c2.23.61,4.48,1.17,6.74,1.66a24.13,24.13,0,0,0,3,.3c.36,0,.67-.05.72-.49a12.43,12.43,0,0,0,1.59.23,36.9,36.9,0,0,0,8.06-.48A25.4,25.4,0,0,0,105,227c2.41-1.47,4.9-2.81,7.35-4.22l7.33-4.24,8.63-5,7.33-4.24,7-4.05L150,201l6.91-4,7.23-4.18c2.83-1.64,5.66-3.3,8.5-4.94,2.45-1.41,4.92-2.79,7.36-4.21,2.84-1.64,5.65-3.32,8.5-5,3.05-1.76,6.14-3.48,9.19-5.25,3.81-2.21,7.59-4.46,11.4-6.67,4.64-2.68,9.3-5.32,13.94-8s9.5-5.47,14.22-8.25a12.36,12.36,0,0,0,2.91-2.22C240.35,148.08,240.52,148.25,240.76,148Z" style="fill: #e8ecf0"/>
    <path d="M249.54,151.82c-2.92,2.29-6.25,3.92-9.43,5.8-2.75,1.63-5.54,3.21-8.31,4.81l-9,5.2c-2.88,1.66-5.77,3.3-8.65,5s-6,3.5-9,5.26c-5.1,3-10.2,5.94-15.31,8.89s-10,5.76-15,8.65c-5.65,3.27-11.28,6.56-16.93,9.82-4.64,2.68-9.31,5.33-13.95,8-3.81,2.2-7.61,4.45-11.42,6.66-3,1.75-6.06,3.46-9.08,5.21-2.85,1.64-5.68,3.29-8.52,4.94-2.41,1.39-4.81,2.82-7.24,4.17a32.23,32.23,0,0,1-11.2,3.62,35.93,35.93,0,0,1-7.81.42c-2.31-.17-4.59-.64-6.88-1,0-.45.37-.51.73-.48.86.07,1.72.23,2.59.23a63.5,63.5,0,0,0,9.93-.45,41,41,0,0,0,14.18-5.15c3.42-2,6.8-4,10.21-6s7-4,10.48-6,6.8-4,10.21-6c4.06-2.34,8.15-4.65,12.21-7l12-7c2.91-1.69,5.84-3.33,8.75-5,4-2.33,8-4.68,12.05-7,3.48-2,7-4,10.48-6,4.06-2.35,8.1-4.72,12.16-7.07,2.87-1.67,5.76-3.3,8.63-5s5.65-3.33,8.49-5c3.48-2,7-4,10.47-6s7.25-4.21,10.81-6.43a17.56,17.56,0,0,0,5.24-4.51c.31-.44.67-.85,1-1.26.22-.25.85-1.18.87-.23a5.68,5.68,0,0,1-1.15,2.57C251.41,149.75,250.44,150.75,249.54,151.82Z" style="fill: #aec6de"/>
    <path d="M17.92,195.31c.23.15.7.25.82.46,1.45,2.74,3.91,4.33,6.5,5.8s5.33,3,8,4.57c2.91,1.68,5.83,3.35,8.74,5,2.44,1.41,4.87,2.85,7.32,4.25s5,2.84,7.46,4.26c2.19,1.27,4.37,2.56,6.57,3.82s4.22,2.48,6.38,3.64c1.93,1,3.92,2,5.9,3a21.72,21.72,0,0,0,6,1.69,36.6,36.6,0,0,0,8.43.52,40,40,0,0,0,8.2-1.24,39.94,39.94,0,0,0,9.71-4.41c3-1.8,6.14-3.49,9.19-5.26,2.84-1.63,5.65-3.32,8.49-5,3.06-1.77,6.14-3.49,9.2-5.25,2.84-1.64,5.65-3.32,8.49-5,3.06-1.76,6.14-3.49,9.19-5.25,2.66-1.54,5.3-3.12,7.95-4.66q3.6-2.1,7.22-4.18,4.43-2.55,8.83-5.12l7.23-4.16c2.92-1.68,5.82-3.37,8.73-5.06l7.23-4.17,8.73-5,7.22-4.18,6.91-4,6-3.49c2.31-1.33,4.62-2.63,6.91-4,2.69-1.57,5.4-3.11,8-4.77a12.11,12.11,0,0,0,4.91-5.3,6.49,6.49,0,0,0-.19-5.5c-.17-.41-.71-.81-.17-1.33l1.76,1.49c-.42.35-.22.74-.09,1.14a6.82,6.82,0,0,1-1,5.91,13,13,0,0,1-4.18,4.2c-3.1,2-6.29,3.87-9.46,5.75-2.4,1.42-4.84,2.76-7.24,4.16-2.65,1.54-5.28,3.14-7.94,4.68-3.63,2.09-7.29,4.14-10.92,6.23-4.07,2.34-8.11,4.71-12.17,7.07L189.46,181c-2.15,1.25-4.31,2.51-6.47,3.75-3.06,1.75-6.13,3.49-9.19,5.25s-6,3.5-9.05,5.25l-7.11,4.12-8.73,5-7.23,4.18c-2.84,1.64-5.66,3.3-8.5,4.94-2.45,1.41-4.92,2.79-7.36,4.2-2.84,1.65-5.65,3.33-8.49,5-3.06,1.76-6.16,3.45-9.19,5.25A38.82,38.82,0,0,1,99.35,232a33.23,33.23,0,0,1-9.65,1.55c-1.7,0-3.4-.13-5.09-.24a29.28,29.28,0,0,1-7.29-1.45A33.13,33.13,0,0,1,71,229.06c-2.43-1.43-4.91-2.79-7.36-4.2-2.16-1.23-4.31-2.49-6.47-3.73q-3.77-2.19-7.55-4.36l-7.35-4.21-7.33-4.24c-2.63-1.5-5.27-3-7.9-4.51-2.86-1.65-5.84-3.15-8-5.83a6.44,6.44,0,0,0-1.37-.84A8.51,8.51,0,0,1,17.92,195.31Z" style="fill: #e0e7ed"/>
    <path d="M17.67,197.14A6.44,6.44,0,0,1,19,198c2.12,2.68,5.1,4.18,8,5.83,2.63,1.52,5.27,3,7.9,4.51l7.33,4.24,7.35,4.21q3.78,2.17,7.55,4.36c2.16,1.24,4.31,2.5,6.47,3.73,2.45,1.41,4.93,2.77,7.36,4.2a33.13,33.13,0,0,0,6.36,2.82,29.28,29.28,0,0,0,7.29,1.45c1.69.11,3.39.23,5.09.24A33.23,33.23,0,0,0,99.35,232a38.82,38.82,0,0,0,8.79-4.09c3-1.8,6.13-3.49,9.19-5.25,2.84-1.64,5.65-3.32,8.49-5,2.44-1.41,4.91-2.79,7.36-4.2,2.84-1.64,5.66-3.3,8.5-4.94l7.23-4.18,8.73-5,7.11-4.12c3-1.75,6-3.51,9.05-5.25s6.13-3.5,9.19-5.25c2.16-1.24,4.32-2.5,6.47-3.75l7.31-4.27c4.06-2.36,8.1-4.73,12.17-7.07,3.63-2.09,7.29-4.14,10.92-6.23,2.66-1.54,5.29-3.14,7.94-4.68,2.4-1.4,4.84-2.74,7.24-4.16,3.17-1.88,6.36-3.75,9.46-5.75a13,13,0,0,0,4.18-4.2,6.82,6.82,0,0,0,1-5.91c-.13-.4-.33-.79.09-1.14l1.25,1.47c0,.44,0,.89,0,1.33a8.12,8.12,0,0,1,0,1,10.1,10.1,0,0,1-3.29,6.13,37.58,37.58,0,0,1-4.85,3.66c-1.77,1.16-3.65,2.16-5.48,3.22l-8.62,5-7.34,4.24-7,4.06-7.22,4.17-8.73,5.05-7.33,4.24-8.62,5-7.34,4.23-8.73,5-7.23,4.17c-2.22,1.29-4.43,2.61-6.66,3.9-2.48,1.43-5,2.82-7.46,4.26-2.84,1.64-5.65,3.33-8.49,5-3.06,1.77-6.14,3.49-9.2,5.25-2.84,1.64-5.65,3.33-8.49,5-3.48,2-7,4-10.48,6a41.19,41.19,0,0,1-9.5,4.27,38.19,38.19,0,0,1-9.31,1.39c-1.61,0-3.22-.15-4.84-.22a31.55,31.55,0,0,1-8.5-1.66c-3.7-1.21-7-3.32-10.35-5.19-4.1-2.28-8.12-4.7-12.17-7.05-2.41-1.4-4.8-2.81-7.21-4.2l-8.41-4.87L30.58,207c-1.72-1-3.43-2-5.17-3a25.79,25.79,0,0,1-6.17-4.38,1.77,1.77,0,0,0-1.39-.61A10.43,10.43,0,0,1,17.67,197.14Z" style="fill: #d7e1ea"/>
    <path d="M17.85,199a1.77,1.77,0,0,1,1.39.61A25.79,25.79,0,0,0,25.41,204c1.74,1,3.45,2,5.17,3l7.55,4.35,8.41,4.87c2.41,1.39,4.8,2.8,7.21,4.2,4,2.35,8.07,4.77,12.17,7.05,3.37,1.87,6.65,4,10.35,5.19a31.55,31.55,0,0,0,8.5,1.66c1.62.07,3.23.25,4.84.22a38.19,38.19,0,0,0,9.31-1.39,41.19,41.19,0,0,0,9.5-4.27c3.49-2,7-4,10.48-6,2.84-1.64,5.65-3.33,8.49-5,3.06-1.76,6.14-3.48,9.2-5.25,2.84-1.63,5.65-3.32,8.49-5,2.48-1.44,5-2.83,7.46-4.26,2.23-1.29,4.44-2.61,6.66-3.9l7.23-4.17,8.73-5,7.34-4.23,8.62-5,7.33-4.24,8.73-5.05,7.22-4.17,7-4.06,7.34-4.24,8.62-5c1.83-1.06,3.71-2.06,5.48-3.22a37.58,37.58,0,0,0,4.85-3.66,10.1,10.1,0,0,0,3.29-6.13,8.12,8.12,0,0,0,0-1c0-.44,0-.89,0-1.33l1,1.48c-.15.73-.27,1.46-.46,2.18-.89,3.42-3.17,5.81-6,7.69-2.38,1.59-4.88,3-7.35,4.45-4.12,2.41-8.26,4.8-12.38,7.2l-7.21,4.21q-3.45,2-6.91,4c-2.49,1.43-5,2.82-7.47,4.26-3.23,1.88-6.43,3.8-9.66,5.68-4.06,2.34-8.15,4.65-12.21,7-3.42,2-6.8,4-10.22,6-4.06,2.35-8.15,4.65-12.21,7s-8,4.67-12.06,7c-2.51,1.47-5,2.94-7.53,4.39s-4.91,2.79-7.36,4.19l-7.22,4.19-8.29,4.82c-2,1.16-4,2.36-6,3.48-2.54,1.41-5.08,2.82-7.68,4.11-4.66,2.31-9.71,3-14.82,3.26a36.6,36.6,0,0,1-7.66-.71,29.1,29.1,0,0,1-8.74-2.75c-2.11-1.08-4.19-2.22-6.26-3.37q-4.62-2.58-9.2-5.24c-2.84-1.64-5.65-3.33-8.49-5l-10.48-6c-3-1.74-6-3.51-9-5.25a71.56,71.56,0,0,1-9.5-5.93c-.12-.09-.7.09-.91.1A10,10,0,0,1,17.85,199Z" style="fill: #ccdae7"/>
    <path d="M19,201.35c.21,0,.49-.11.61,0a71.56,71.56,0,0,0,9.5,5.93c3,1.74,6,3.51,9,5.25l10.48,6c2.84,1.64,5.65,3.33,8.49,5q4.59,2.65,9.2,5.24c2.07,1.15,4.15,2.29,6.26,3.37a29.1,29.1,0,0,0,8.74,2.75,36.6,36.6,0,0,0,7.66.71c5.11-.26,10.16-.95,14.82-3.26,2.6-1.29,5.14-2.7,7.68-4.11,2-1.12,4-2.32,6-3.48l8.29-4.82,7.22-4.19c2.45-1.4,4.91-2.78,7.36-4.19s5-2.92,7.53-4.39c4-2.34,8-4.69,12.06-7s8.15-4.65,12.21-7c3.42-2,6.8-4,10.22-6,4.06-2.35,8.15-4.66,12.21-7,3.23-1.88,6.43-3.8,9.66-5.68,2.48-1.44,5-2.83,7.47-4.26q3.47-2,6.91-4l7.21-4.21c4.12-2.4,8.26-4.79,12.38-7.2,2.47-1.45,5-2.86,7.35-4.45,2.81-1.88,5.09-4.27,6-7.69.19-.72.31-1.45.46-2.18a3,3,0,0,1,1,1.81c-.7.1-.62.74-.74,1.16a12.67,12.67,0,0,1-4.19,6.07,43.54,43.54,0,0,1-5.23,3.58c-3.3,2-6.64,3.94-10,5.87-3.06,1.77-6.14,3.48-9.2,5.25-2.84,1.64-5.65,3.32-8.49,5s-5.84,3.34-8.75,5-6,3.51-9,5.26c-3.49,2-7,4-10.48,6-2.84,1.64-5.66,3.32-8.49,5s-5.77,3.29-8.64,5c-3.49,2-6.95,4.07-10.44,6.08-4.06,2.35-8.15,4.65-12.21,7-3.42,2-6.81,4-10.22,6s-7,4-10.48,6c-2.84,1.64-5.65,3.33-8.49,5-3,1.76-6.13,3.49-9.19,5.24a41.85,41.85,0,0,1-6.84,3.31,36.18,36.18,0,0,1-7.34,1.83,40.12,40.12,0,0,1-7.18.47,38.45,38.45,0,0,1-14.25-3c-2.65-1.22-5.16-2.67-7.68-4.12s-4.91-2.79-7.36-4.2c-2.23-1.28-4.44-2.59-6.67-3.88l-7.33-4.24q-3.77-2.19-7.55-4.36l-9.19-5.26c-1.86-1.08-3.71-2.2-5.56-3.31-.35-.21-.65-.6-1.06-.1A4.68,4.68,0,0,1,19,201.35Z" style="fill: #c3d4e4"/>
    <path d="M87.29,230.34c-.05.44-.36.52-.72.49a24.13,24.13,0,0,1-3-.3c-2.26-.49-4.51-1.05-6.74-1.66A31.62,31.62,0,0,1,70,225.64c-2-1.11-4-2.31-6-3.47l-7-4L48.13,213c-2.44-1.41-4.87-2.84-7.32-4.24-3.32-1.9-6.64-3.77-10-5.65-1.66-.94-3.32-1.89-5-2.82-.72-.4-1.46-.76-2.19-1.15a9.6,9.6,0,0,1-4.37-4.9c-.11-.24-.55-.52-.72-.74a9.83,9.83,0,0,1,1.52-2.33c.09.53.39,1.21.44,1.74a3.92,3.92,0,0,0,4.83,3.39,1.51,1.51,0,0,0,.55-.44c.53-.53,1.07-1.05,1.56-1.6a.91.91,0,0,1,1.32-.18c.09.61.14,1.23.27,1.84a8.11,8.11,0,0,0,2.58,4.3,30.54,30.54,0,0,0,5.64,3.61l7.34,4.22c2.87,1.66,5.73,3.34,8.61,5,2.44,1.41,4.9,2.8,7.34,4.21,2.83,1.64,5.65,3.31,8.49,5s5.85,3.31,8.73,5A23.44,23.44,0,0,0,87.29,230.34Z" style="fill: #f0f2f3"/>
    <path d="M72.52,233.57c.25,0,.54-.2.76-.13.6.16,1.16.43,1.75.63a40.16,40.16,0,0,0,7.74,1.75,37,37,0,0,0,6.81.46,45.4,45.4,0,0,0,9.54-1.46,35.51,35.51,0,0,0,7.74-3.08c3-1.68,6-3.47,9.07-5.21l7.34-4.23c2.44-1.4,4.89-2.8,7.34-4.22l8.83-5.11,8.41-4.87c2.51-1.46,5-2.9,7.55-4.36l6.67-3.88,7.55-4.35,8.51-4.94,7.33-4.24,8.63-5,7.55-4.35,7.23-4.17,7.1-4.13c2.44-1.42,4.88-2.85,7.32-4.25l9.19-5.26c2-1.16,4-2.34,6-3.52,2.29-1.35,4.58-2.88,6.84-4.27a16.89,16.89,0,0,0,6.61-7.23c.23-.46.25-1.84,1.09-1.84.2.92.79,3.33.11,4.18-.18-.26-.45-.49-.67-.24-.35.41-.71.82-1,1.26a17.56,17.56,0,0,1-5.24,4.51c-3.56,2.22-7.19,4.32-10.81,6.43s-7,4-10.47,6c-2.84,1.64-5.65,3.32-8.49,5s-5.76,3.29-8.63,5c-4.06,2.35-8.1,4.72-12.16,7.07-3.49,2-7,4-10.48,6-4,2.33-8,4.68-12.05,7-2.91,1.69-5.84,3.33-8.75,5l-12,7c-4.06,2.34-8.15,4.65-12.21,7-3.41,2-6.8,4-10.21,6s-7,4-10.48,6-6.79,4-10.21,6A41,41,0,0,1,95,236.58a63.5,63.5,0,0,1-9.93.45c-.87,0-1.73-.16-2.59-.23-.36,0-.68,0-.73.48a29.15,29.15,0,0,1-8.28-3A8.52,8.52,0,0,1,72.52,233.57Z" style="fill: #b3cadf"/>
  </g>
  <g id="Screen">
    <path d="M237.26,150.57c7.17-4.15,7.17-10.87,0-15L192.15,109c-7.17-4.15-18.8-4.15-26,0l-133,76.91c-7.17,4.15-8,11-.85,15.13l45.82,26.4c7.68,4.44,18.85,4.21,26,.06Z" style="fill: #fff"/>
    <path d="M181.92,153.14l-23.87-14.41c-8-4.86-21.1-4.93-29.19-.15l-26.59,15.69c-8.08,4.77-8.12,12.57-.09,17.43l23.87,14.41c8,4.86,21.1,4.92,29.19.15l26.59-15.69C189.91,165.8,190,158,181.92,153.14Z" style="fill: #e6f1ff"/>
    <g>
      <path d="M141.39,158.14l8.81-5.2,22.3,13.47-23.78,14L112,158.22l14.53-8.57,14,8.48.43.26Z" style="fill: #fff"/>
      <path d="M148.72,181,111,158.22l15.51-9.16L141,157.81l9.25-5.46,23.27,14.06Zm-35.8-22.79,35.81,21.63,22.8-13.46L150.2,153.52,141,159l-14.48-8.74Z" style="fill: #e6f1ff"/>
    </g>
  </g>
  <g id="Lines">
    <path d="M98.43,160h-1v-6h1Zm0-12h-1v-6h1Zm0-12h-1v-6h1Zm0-12h-1v-6h1Zm0-12h-1v-6h1Zm0-12h-1V94h1Zm0-12h-1V82h1Zm0-12h-1V70h1Z" style="fill: #e6f1ff"/>
    <path d="M186.22,159h-1v-6h1Zm0-12h-1v-6h1Zm0-12h-1v-6h1Zm0-12h-1v-6h1Zm0-12h-1v-6h1Zm0-12h-1V93h1Zm0-12h-1V81h1Zm0-12h-1V69h1Z" style="fill: #e6f1ff"/>
    <path d="M142.33,182h-1v-6h1Zm0-12h-1v-6h1Zm0-12h-1v-6h1Zm0-12h-1v-6h1Zm0-12h-1v-6h1Zm0-12h-1v-6h1Zm0-12h-1v-6h1Zm0-12h-1V92h1Z" style="fill: #388af7"/>
  </g>
  <g id="Logo">
    <path d="M158.49,46,180,60.33c8.28,5.5,8,14-.57,19l-25,14.51c-8.6,5-22.28,4.59-30.55-.92L102.41,78.61c-8.28-5.5-8-14,.57-19l25-14.51C136.54,40.09,150.21,40.5,158.49,46Z" style="fill: #fe0000"/>
    <path d="M112.09,64.6,127,56l13.56,9,8.93-5.2,21.68,14.42L147.33,88Z" style="fill: #fff"/>
    <path d="M124.16,66.78l-.3-.2,5.43-4.9L126.73,60l-8.3,4.83,1.34.88,6.87-4,.28.18-5.47,4.87,2.28,1.52,8.2-3.05.29.18-6.83,4,1.35.9,8.27-4.8-2.58-1.72Zm12.22,9.92,4.73,3.14,1.44-.84-3.35-2.23,2.06-1.2,2.89,1.92,1.37-.8-2.89-1.92,2-1.13,3.36,2.23,1.44-.84-4.73-3.14Zm-3.59-3.94c-1.53-1-1-2.23.64-3.19a4.86,4.86,0,0,1,5.17-.18c1.54,1,1,2.24-.64,3.19A4.88,4.88,0,0,1,132.79,72.76ZM140,68.55a7.6,7.6,0,0,0-8,.08c-2.57,1.5-3,3.45-.73,5a7.68,7.68,0,0,0,8-.12C142,72,142.37,70.09,140,68.55Zm2,11.92,1.45,1,4.92-.82-1.52,3.07,1.45,1,2-4.08,6.15-.83-1.45-1-4.49.69,1.4-2.75-1.46-1-1.8,3.66Z" style="fill: #fe0000"/>
  </g>
</svg>
